<?xml version="1.0" encoding="utf-8"?>
<!-- Generator: Adobe Illustrator 27.0.1, SVG Export Plug-In . SVG Version: 6.00 Build 0)  -->
<svg version="1.1" id="Layer_1" xmlns="http://www.w3.org/2000/svg" xmlns:xlink="http://www.w3.org/1999/xlink" x="0px" y="0px"
	 viewBox="0 0 1440 700" style="enable-background:new 0 0 1440 700;" xml:space="preserve">
<style type="text/css">
	.st0{fill:#19120B;}
	.st1{fill:#462F1D;}
</style>
<rect x="-12.4" y="-5.1" class="st0" width="1452.4" height="708.2"/>
<g>
	<g>
		<path class="st1" d="M1196.4,59.8c-7.6,0.2-15.2-1.4-22.6-3.6c-0.5-0.2,0.1-0.5,0.4-0.4c7.4,2,14.8,2.8,22.3,3.6
			C1196.9,59.5,1196.8,59.8,1196.4,59.8z"/>
		<path class="st1" d="M1219.4,82.8c-2.8-0.3-5.6-0.7-8.5-1c-0.2,0-0.1-0.2,0.1-0.2c2.8,0.3,5.6,0.7,8.5,1
			C1219.7,82.7,1219.6,82.8,1219.4,82.8z"/>
		<path class="st1" d="M1215.6,53.8c-9.1,0.5-18.1-0.5-27.3-1.8c-0.7-0.1-0.3-0.6,0.2-0.6c9,0.8,18.1,1,27.1,1.8
			C1216.2,53.4,1216,53.8,1215.6,53.8z"/>
		<path class="st1" d="M1246.6,62.4c-9,1-18.3,0.2-27.4-1.4c-0.6-0.1-0.2-0.5,0.2-0.5c9.1,1.3,18,1.4,27.1,1.4
			C1246.8,61.9,1247.1,62.4,1246.6,62.4z"/>
		<path class="st1" d="M1237,73.3c-3.7-0.1-7.4-0.3-11-0.5c-0.3,0-0.3-0.3,0-0.3c3.7,0.2,7.4,0.3,11,0.6
			C1237.2,73.2,1237.2,73.3,1237,73.3z"/>
		<path class="st1" d="M1261,90.5c-9.4,0.3-19-0.6-28.4-1c-0.4,0-0.4-0.4,0-0.4c9.5,0.1,19.1-0.2,28.5,0.7
			C1261.8,89.9,1261.5,90.4,1261,90.5z"/>
		<path class="st1" d="M1345.6,65.4c-2.3-4.5-5.8-8.4-10.2-9.8c-4.1-1.4-14.1-3.1-15.3,3.3c0,0.1,0,0.3-0.1,0.4
			c0,0.2-9-0.8-19.8-3.8c-10.1-2.8-20.1-6.3-30.4-9c-14-3.6-28.5-5.3-42.7-6.4c-28.9-2.1-57-2.8-85.5-8.1c-11-2.1-28.7-7.6-33.6-0.3
			c-4.9,7.2-0.4,24,3.1,34.4c7,20.3,23,41.2,36.6,54.1c20.9,19.8,47.6,33.7,75.5,38.4c28.7,4.8,54.6,0.9,80.4-8.9
			c12-4.6,20.7-16,28-25.7c4.3-5.7,8.2-11.5,11.3-17.7c4.6-9.3,6.9-19.9,6.9-22.6C1349.9,80.9,1349.2,72.5,1345.6,65.4z
			 M1121.4,39.6c0.6,0.8,0,1.7-0.1,1.9c-0.1,0.2-1.1,2.1-3.1,3.7c-2,1.6-3.8,2.5-4,2.3c-0.2-0.1-2.6-1.9-3.8-4.8s0.8-5.4,2.5-5.4
			c1.7,0.1,3,1,3.1,2c0.1,0.6,0.3,1.2,0.5,1.7c0.4,0.9,2.2,0.7,2.6,0c0.2-0.4,0.3-0.8,0.5-1.2C1119.9,39.1,1120.9,38.8,1121.4,39.6z
			 M1286,54.3c5.6,1.8,11.1,3.5,16.7,5c9.3,2.4,17,3.1,17.1,3.2c0,0.1-8.9-0.6-20-1.6c-7.8-0.8-15.6-1.5-23.4-2.3
			c-1-0.1-2.7,0.9-0.9,1.5c7.8,2.5,16.2,4.1,24.6,4.9c11,1.1,20,1,20.1,1.7c0.1,0.7-3,1.5-6.9,2.1c-2.4,0.4-4.8,0.7-7.1,0.9
			c-6.7,0.4-13.4,0.3-20,0.7c-1.3,0.1-1.8,1.2-0.2,1.5c7.5,1.7,15.3,1.8,22.8,1.4c1.9-0.1,4.1-0.2,6.4-0.3c3.5-0.2,6.4-0.5,6.4-0.2
			c0.1,0.3-2.9,0.8-6.7,1.3c-2.3,0.3-4.6,0.5-6.9,0.7c-2.3,0.1-4.5,0.2-6.8,0.4c-3.8,0.2-8.9,0.4-11.4,0.5c-1.6,0-3.1,0.1-4.6,0.2
			c-12.3,1.2-25.1,1.8-37.2,4.1c-0.3,0.1-0.2,0.3,0.1,0.3c8.2,0.1,16.4-0.6,24.6-1.4c10.9-1,22.7-0.9,26.4-0.8
			c3.7,0.1,9.6,0.1,13.1,0.2c3.6,0,0.8,1.4-6.5,2.4c-4.4,0.6-8.9,1.1-13.2,1.8c-1.5,0.2-0.8,1.4,0.5,1.5c7.9,0.4,15.8-0.7,23.3-2.5
			c1.1-0.3,2.3-0.5,3.5-0.8c1.9-0.5,3.4-0.9,3.4-0.7c0,0.2-7.9,3.7-18,7.1c-10.9,3.6-21.9,6.5-33.8,8.5c-0.8,0.1-0.4,0.8,0.3,0.8
			c11.5-0.3,23.5-2.5,34.4-6.4c10-3.6,17.2-7.4,16.9-6.3c-0.3,1.1-3.2,3.7-6.5,5.7c-2,1.2-3.9,2.4-6,3.5c-5.9,3-12.3,5.4-18.6,7.8
			c-1.4,0.5,0.2,1.3,1,1.3c0.8-0.1,1.7-0.2,2.5-0.3c1.4-0.2-5.7,2.3-16.4,4.3c-6.8,1.3-13.8,2.2-21.1,3.3c-0.6,0.1-0.5,0.6,0.1,0.7
			c21.9,3.7,46.6-3.9,63.8-15.2c1.3-0.8,2.7-1.8,4-2.8c2.2-1.6,3.8-3.1,4-3c0.2,0.1,0.1,0.3-0.1,0.4c-0.1,0.1-0.2,0.2-0.3,0.3
			c-7.5,7.4-15.7,13.8-22.9,21.5c-0.2,0.2,0.3,0.2,0.4,0.2c9.5-6.1,17.9-13.3,27.2-19.7c0.1-0.1,0.2-0.1,0.3-0.2
			c0.1-0.1,0.3-0.2,0.5-0.2c0.1,0,0.1,0.2-0.1,0.4c-0.1,0.1-0.2,0.2-0.3,0.4c-8.8,16.9-22.9,27.5-38.8,36.3c-9.2,5.1-8.4,6.8,1,2
			c10.5-5.5,19.7-12.9,28.1-21.2c7.4-7.3,11.5-9,8.2-4c-2.1,3.2-4.5,6.2-6.4,8.8c-4,5.5-8,11-11.5,16.8c-0.2,0.3,0.6,0.3,0.7,0.2
			c7.3-7.6,12.7-16.2,18.6-24.8c1.4-2,3.6-4.2,5.4-6.5c2.8-3.7,2.8-7.9,3.1-8c0.4-0.1-0.9,8.4-5.4,17.8
			c-9.6,19.6-27.6,37.2-46.8,43.7c-25.8,8.8-55.8,8.8-83.1-0.3c-24.9-8.3-47.6-23.2-64.7-43.3c-8.5-10-16.1-20.9-21.6-32.7
			c-1.5-3.2-2.7-6.5-3.8-9.7c-1.9-5.4-2.1-8.1-0.7-5.9c0.9,1.3,1.8,2.6,2.7,4c5,7.8,6.2,17.1,11.3,24.7c9.4,14.1,25.1,24.4,39.1,34
			c0.2,0.1,0.8,0,0.5-0.2c-12.2-11.2-33.3-22.4-38.9-38.4c-2.4-6.9-4-14.4-8.1-20.7c-1.1-1.7-2.2-3.3-3.2-4.9
			c-1.7-2.8,0-0.7,4.6,3.8c2.9,2.7,5.9,5.3,8.6,7.9c7.1,6.8,13.8,14.1,21.9,19.8c0.3,0.2,2.1,0.3,1.6-0.4
			c-5.4-7.7-12.9-14-19.7-20.7c-2.2-2.2-4.3-4.4-6.5-6.6c-3.6-3.6,0.2-0.7,8.9,6.3c5.2,4.1,10.6,8,17,10.7
			c14.9,6.3,30.4,10,46.1,12.5c0.2,0,0.6-0.2,0.2-0.3c-25.7-7.1-46.9-13.7-67.4-32.3c-3.6-3.2-7.8-7.6-12.4-9.6
			c-0.6-0.3-1-0.7-1.1-1.1c-0.2-0.8,7,3.4,15.9,8.4c8.9,5,15.2,7.8,13.6,7.3c-1-0.3-1.9-0.6-2.9-0.9c-0.3-0.1-0.9,0.1-0.5,0.4
			c10.5,7.2,23.8,11.6,36,14c0.3,0.1,1.1-0.3,0.5-0.6c-3.2-1.5-6.4-2.9-9.7-4.3c-5.4-2.3-9.5-4-9.5-4.3c0-0.1-0.1-0.3-0.3-0.4
			c-2.9-1.9-6-3.8-9.1-5.6c-5.1-3-1.4-2.2,8.6-0.3c6.3,1.2,12.5,1.8,18.2,1.8c1.4,0,2-1.4,0.3-1.7c-10.9-1.9-21.9-3.9-32.3-8
			c-4.4-1.8-8.5-3.8-12.6-6c-6.8-3.6-12-7.4-11.7-8.4c0.3-1.1,6.8,3.2,16.1,5.9c6,1.8,12.3,2.6,17.1,2.5c0.9,0,2.1-1.1,0.6-1.5
			c-6.1-1.8-12.5-2.9-18.5-5.1c-1.8-0.7-3.6-1.4-5.4-2.2c-3-1.3,3.4,0.3,14.2,3.2c9.4,2.6,18.9,4.9,28.4,6.3
			c0.6,0.1,1.3-0.4,0.5-0.8c-3.1-1.3-6.2-2.4-9.4-3.5c-5.2-1.8-5.9-2.2-1.5-1.6c2.7,0.4,5.4,0.6,8,0.6c0.2,0,0.5-0.2,0.2-0.4
			c-3.2-1.6-6.6-2.8-10.1-3.7c-5.7-1.5-1.5-1,9.5-0.1c15.6,1.2,31.3,1.6,46.6,2.6C1244.3,44.2,1265,47.5,1286,54.3z M1333.8,60.2
			c2.3-1.1,4.6,0.9,7,6c1.1,1.9,1.9,3.9,2.8,5.9c1.4,3.3,2.4,7.2,2.8,8.7c0.2,0.9,0.6,1.8,0.7,2.8c0.1,0.5,0.1,1,0.1,1.5
			c0.1,0.8-0.5,1.3-1.3,1.4c-0.7,0.1-4,1.4-7.6,0.9c-3.6-0.5-4.6-4.8-4.5-7.3c0.1-1.4-0.2-2.9-0.8-4.5c-0.6-1.5-1.1-2.8-1.8-4
			C1330.1,69.4,1329,62.4,1333.8,60.2z"/>
		<path class="st1" d="M1286.7,82.9c-7.1,1.2-14.6,1.5-21.8,2.2c-0.3,0-0.5-0.3-0.2-0.3c7.2-0.8,14.5-2,21.9-2.3
			C1286.9,82.4,1287.1,82.8,1286.7,82.9z"/>
		<path class="st1" d="M1280.8,65.3c-9.2,0.6-18.9-1.3-28.2-2.3c-0.9-0.1-0.6-0.9,0.1-0.9c9.2,0.5,19,0,28.2,2.1
			C1282,64.5,1281.7,65.3,1280.8,65.3z"/>
		<path class="st1" d="M1269.4,55.3c-8.1-0.2-16.2-1.9-24.3-3.1c-0.5-0.1-0.2-0.5,0.2-0.4c8.1,0.7,16.2,1,24.2,2.8
			C1270.3,54.7,1270.1,55.4,1269.4,55.3z"/>
		<path class="st1" d="M1266.9,74.6c-6,0.5-12.5-1.2-18.6-1.9c-0.6-0.1-0.5-0.7,0.1-0.6c6,0.4,12.7-0.1,18.7,1.6
			C1267.8,73.9,1267.5,74.6,1266.9,74.6z"/>
		<path class="st1" d="M1249.6,82.5c-0.4,0.1-0.8,0.2-1.3,0.3c-0.1,0-0.3-0.1-0.1-0.1c0.4-0.1,0.9-0.2,1.3-0.3
			C1249.6,82.4,1249.7,82.5,1249.6,82.5z"/>
		<path class="st1" d="M1335.9,73.7c0.2,1.8,0.7,3.4,2,4.9c0.2,0.3-0.4,0.4-0.6,0.1c-1.2-1.5-2-3.3-1.9-5.1
			C1335.3,73.5,1335.8,73.5,1335.9,73.7z"/>
		<path class="st1" d="M1337.5,67.3c-0.1,0.7-1.4,2-0.7,2.5c0.7,0.5,0.9,1.3,0.9,2c0,0.1-0.3,0.1-0.3,0c-0.2-0.9-0.8-1.6-1.8-1.9
			c-0.1,0-0.3-0.2-0.3-0.3c0.5-0.8,0.8-1.7,1.5-2.4C1336.9,67.1,1337.5,67,1337.5,67.3z"/>
		<path class="st1" d="M1341.7,74.5c1,1.4,1.3,3.2,1.1,4.7c-0.1,0.6-1.3,0.7-1.6,0.1c-0.8-1.5-1.3-3.3-0.9-4.8
			C1340.4,74,1341.4,74.1,1341.7,74.5z"/>
		<path class="st1" d="M1116.2,42.9c0.4,1.4-3.6,1.6-3.8,0c-0.2-1.2-0.3-2,0.4-2.9c0.4-0.5,1.3-0.4,1.8,0
			C1115.7,40.8,1115.9,41.8,1116.2,42.9z"/>
		<path class="st1" d="M1250.2,103.5c-11.4-1.9-22.8-3.9-34-7.3c-0.6-0.2,0-0.6,0.3-0.5c11.4,1.6,22.6,4.5,33.8,7.7
			C1250.5,103.3,1250.3,103.5,1250.2,103.5z"/>
		<path class="st1" d="M1218.4,90.4c-10.2-1.6-21.8-3.6-31-9.1c-0.8-0.5,0.3-0.9,0.8-0.8c10.3,2.4,20.3,6.7,30.5,9.6
			C1219.1,90.1,1218.7,90.4,1218.4,90.4z"/>
		<path class="st1" d="M1223.6,72.8c-9,3-21,0.8-30.3-1.6c-1-0.3-0.1-1,0.6-0.9c5.1,1,10.2,1.5,15.3,1.7c4.6,0.1,9.1-0.6,13.7-0.4
			C1223.7,71.5,1224.8,72.4,1223.6,72.8z"/>
	</g>
</g>
<g>
	<path class="st1" d="M244.9,27.6c-11.8-9.3-25.8-17.4-42.1-23.2C169.7-7.3,129.7-6.7,94-0.9C83,0.9,72.2,3.3,61.5,6
		c-0.2,0-0.3,0.1-0.4,0.2c-0.2,0.1-4.8,1.3-9.9,3.2C30.1,17.1,14.5,32.6,4.5,45.9c-14.6,19.5-21.2,44.7-13,65.9
		c2.2,5.6,7.7,10.4,12.5,15.2c5.9,5.8,12.3,11.4,19,16.9c11,9,23,16.2,40.1,19.8c9.7,2,19.2,3.9,28.6,6.4c8.8,2.3,17.7,4.6,27,6
		c18.2,2.7,33.1-1.4,49.4-6.3c36.4-11,70.1-24.8,96.8-44.6c12.2-9.1,15.8-22.2,17.8-33.8c2.1-12.1-1.1-24-8.8-35.1
		C266.8,45.7,256,36.3,244.9,27.6z M271.4,113.5c-3.8,6.5-11.2,11.4-19,16.1c-1.3,0.8-2.6,1.6-4,2.4c-2.2,1.3-3.9,1-4.4-0.7
		c-0.4-1.1-1-2-1.7-2.9c-0.3-0.3-1-0.1-0.9,0.3c0.5,1.7,1.1,3.2,1.2,4.9c0,0.3,0,0.7,0,1c-0.1,0.6-3.7,3.1-8.2,5.6
		c-9.9,5.5-20.3,10.6-31.6,15c-17.3,6.7-36.3,13-55.3,17.5c-16.7,3.9-33.9,0.2-49.6-3.8c-6.8-1.7-13.4-3.5-20.3-5
		c-8.8-2-17.8-3.1-26.1-6c-6.4-2.3-12.1-5.4-17.4-8.9c-4.1-2.7-7.1-5.2-7.1-5.3c0,0,0-0.1-0.1-0.1c-3.3-4.1-7.4-7.7-10.3-12
		c-2.9-4.3-4.3-8.9-6.3-13.3c-0.2-0.5-1.3-0.4-1.3,0.1c-0.1,2.8,0.5,5.8,1.8,8.8c1.5,3.7,0.7,4-2.7,1c-8.2-7.4-15-15-16.7-24.5
		C-12,84-4.6,63.6,9,45.9C22,28.8,45.3,8.9,76.5,6c0.7-0.1,1.1-0.4,1.2-0.7c0.2-0.6,3.9-1.9,9.5-3c31.2-5.7,63.8-7.2,95.5-0.8
		c37.6,7.6,68,29.2,85.9,51.3c10.4,12.9,13.1,26.7,10.2,41.1C277.4,100.5,275.1,107.3,271.4,113.5z"/>
	<path class="st1" d="M117.8,109.3C117.8,109.3,117.8,109.3,117.8,109.3c0,0.1-1.2,0.8-2.8,1.6c-1,0.5-1.9,1-2.9,1.4
		c-0.1,0,0,0.1,0.1,0.1c1.1-0.4,2-0.9,3-1.4c1.6-0.8,2.7-1.6,2.8-1.6c0,0,0,0,0.1,0l0.4-0.2c0.1-0.1-0.1-0.2-0.2-0.1
		C118,109.1,117.9,109.2,117.8,109.3z"/>
	<path class="st1" d="M89.4,110.1c-3.9,1.4-8.6,2.7-11.8,4.7c-0.2,0.1,0.1,0.2,0.3,0.2C82,113.8,85.6,111.6,89.4,110.1
		C89.5,110.1,89.5,110.1,89.4,110.1z"/>
	<path class="st1" d="M109.9,83.7c-6.9-1-14.2-2.4-21.2-2.9c-6.6-0.5-13.4,2.3-19.2,3.8c-0.1,0-0.1,0.2,0.1,0.1
		c6.4-1.3,12.5-2.6,19.2-2.8c7.2-0.1,13.6,2.9,21.1,2.3C110.3,84.2,110.3,83.8,109.9,83.7z"/>
	<path class="st1" d="M120.4,63.4c-0.1-0.1-0.3-0.1-0.3,0c-0.6,2.1-1,4.2-1.3,6.3c0,0.1,0.2,0.2,0.4,0.1
		C120.9,68,121.4,65.5,120.4,63.4z"/>
	<path class="st1" d="M119.2,57.4C119.4,57.8,119.4,57.7,119.2,57.4C119.1,57.1,119.1,57.1,119.2,57.4z"/>
	<path class="st1" d="M125.6,57.6c-0.3-0.2-0.9,0-0.7,0.3c1.8,2.7,3.8,5.3,4,8.2c0,0.1,0.2,0.1,0.2,0
		C129.6,63,129.1,59.9,125.6,57.6z"/>
	<path class="st1" d="M118.4,57.4c-0.4-0.3-1.3-0.1-1,0.3c0.3,0.4,0.6,0.8,0.8,1.3c0.2,0.4,0.4,0.8,0.7,1.2c0.2,0.2,0.7,0.2,0.8-0.1
		C120,59.2,119.2,58,118.4,57.4z"/>
	<path class="st1" d="M148.4,71.3c0-0.2-0.4-0.2-0.5,0c-0.7,1.6-1.1,3.2-1.8,4.8c-0.1,0.1,0.2,0.2,0.3,0.1
		C147.6,74.7,148.7,73,148.4,71.3z"/>
	<path class="st1" d="M149.9,68.4c-0.7,0.6-0.7,1.5-0.6,2.3c0,0.4,1,0.4,1,0c-0.1-0.7,0.2-1.4,0.2-2.2
		C150.5,68.2,150,68.2,149.9,68.4z"/>
	<path class="st1" d="M147.6,64.1c0-0.2-0.3-0.3-0.5-0.1c-1,1-1,2.3-0.7,3.4c0.1,0.3,0.8,0.3,0.7,0C147,66.2,147.4,65.2,147.6,64.1z
		"/>
	<path class="st1" d="M152.5,62.3c-0.8,0.3-1.1,1-1.4,1.6c-0.4,0.8-0.5,1.6-0.5,2.4c0,0.3,0.7,0.3,0.8,0.1c0.1-0.8,0.4-1.5,0.8-2.2
		c0.3-0.5,0.9-1,0.9-1.6C153.2,62.3,152.8,62.2,152.5,62.3z"/>
	<path class="st1" d="M138.4,80.7c-2.1-0.5-4.9-0.4-7.1-0.2c-0.3,0-0.3,0.3,0,0.3c2.2,0.4,5,0.7,7.2,0.3
		C138.9,81.1,138.8,80.8,138.4,80.7z"/>
	<path class="st1" d="M160.3,80.3c-1.5-0.2-2.9,0.3-4.3,0.7c-1.5,0.4-3.1,1-4.2,1.8c-0.2,0.1,0,0.4,0.3,0.3c1.6-0.3,3.1-0.8,4.6-1.1
		c1.3-0.3,2.8-0.4,3.9-1C161,80.7,160.7,80.3,160.3,80.3z"/>
	<path class="st1" d="M129.6,68.6c-0.3,0.2-0.5,0.5-0.7,0.7c-0.3,0.4-0.6,0.7-0.8,0.7c-0.1,0-0.2,0-0.3,0c-2.8,1.2-4.8,4.7-4.6,6.8
		c0,0.2,0.5,0.3,0.7,0.1c0.8-1.1,1.3-2.4,2.1-3.5c0.3-0.4,0.6-0.7,0.9-1.1c0.5-0.6,0.6-0.4,0.3,0.3c-0.2,0.5-0.4,0.9-0.4,1.4
		c0,0.2,0.4,0.3,0.7,0.2c1.2-0.7,1.8-1.7,2.3-2.6c0.6-1,1-1.9,0.7-2.9C130.3,68.6,129.8,68.5,129.6,68.6z"/>
	<path class="st1" d="M119.2,77.1c-0.6-0.5-1.1-1.2-1.4-1.8c-0.3-0.6-0.4-1.2-0.7-1.8c-0.1-0.2-0.6-0.4-0.9-0.1
		c-0.8,0.6-0.6,1.5-0.3,2.3c0.5,1,1.5,1.5,2.8,1.9C119.2,77.7,119.5,77.4,119.2,77.1z"/>
	<path class="st1" d="M111.9,75c-1.3-1.1-1.3-2.3-1.7-3.6c-0.1-0.2-0.5-0.2-0.6,0c-1.1,1.4,0.1,3,1.6,4.1
		C111.5,75.7,112.3,75.3,111.9,75z"/>
	<path class="st1" d="M115.5,68.9c0.1-0.1-0.3-0.2-0.4-0.1c-1.4,1-1.6,2.3-1.2,3.6c0.1,0.3,0.7,0.2,0.7-0.1
		C114.4,71.2,114.9,70,115.5,68.9z"/>
	<path class="st1" d="M110.2,85.8c-1.4-0.3-2.8-0.5-4.2-0.7c-1.5-0.2-2.9-0.5-4.4-0.6c-0.6,0-0.6,0.5-0.2,0.6c2.5,1,6,1.3,8.8,1
		C110.6,86.2,110.5,85.9,110.2,85.8z"/>
	<path class="st1" d="M219.2,74.1c-9.4,4.3-18.4,4.7-29,2c-6.2-1.6-15.3-5.9-23.7-7.2c-5.7-0.9-9.6-1.7-8.7-4.6
		c0.6-1.8,1.2-3.5,2-5.1c0-0.1,0-0.1,0-0.2c0-0.1-1-2.3-4.5-3.4c-3.5-1.1-6.2-2.4-6.1-3.6c0.1-0.7,0.1-1.5,0.1-2.2c0-0.7,0-1.4,0-2
		c-0.1-1.1-0.5-3.1-0.6-4.5c-0.1-1.3-0.4-5.5-1.6-9.3c-0.8-2.3-1.9-4.5-3.5-6.5c-0.3-0.4-1.6-0.2-1.5,0.3c0.9,4.6,2.5,9,2.7,13.6
		c0.1,2.6-0.2,5.1-0.8,7.6c-0.8,3.8-4,8.5-5.3,10.9c-0.8,1.4-1.1,2.9-0.7,4.6c0.7,3.4,3.6,4.9,1.1,8.7c-1.2,1.8-3,3.1-5.3,4
		c-3.9,1.5-3.6-0.5-1-3.9c1.7-2.3,2.6-4.9,2.9-7.6c0.3-2.5,1.5-5.9-0.8-8.2c-3.1-3.1-7.2-5.9-11-8.7c-2.9-2.1-5.8-3.9-9.7-5.3
		c-6.8-2.4-14.5-2.1-16.1-8.4c-2-7.7-4.1-15.3-7.3-22.8c-0.1-0.3-0.9-0.5-1.3-0.2c-5.8,5-4.9,10.9-3.1,16.7
		c1.3,4.4,1.3,8.8,2.4,13.1c0.4,1.7,3.9,2.6,6,3.1c7.6,1.9,13.8,3.8,15,9.6c0.4,1.8,0.4,3.7,0.6,5.5c0.3,2.9-0.5,3.9-3.5,6.1
		c-0.1,0.1-0.2,0.2-0.3,0.2c-0.2,0.1-2.3-2.6-6.3-5.4c-2.6-1.8-5.4-3.4-7.9-4.8c-6.5-3.9-15.1-7.5-24.3-6.5c-1,0.1-0.8,1.1,0.1,1.2
		c7.8,1,14.9,3.3,21.1,6.4c4.7,2.3,8.7,5.5,9.5,6.5c0.5,0.6,0.9,1.2,1.3,2c0.7,1.2,0.9,2.4,1.1,3.6c0.4,2-1,3-3.5,2.6
		c-1.5-0.3-3-0.5-4.6-0.7c-8.2-1-16.8,0.2-24,2.8c-3.7,1.3-6.8,3.4-9.6,5.4c-1.7,1.2-3,2.6-4.6,3.8c-2.3,1.8-8.6,0.4-11.4,0.1
		c-6.6-0.8-12.8-2.1-18.8-4c-3.8-1.2-7.1-2-11.3-1.1c-0.8,0.2-1,0.8-0.4,1.2c6,3.9,13.3,6.6,20.9,9.1c6.8,2.3,14,4.5,21.8,4.6
		c6.9,0.1,13.3-3.1,19.2-5c6.8-2.2,14.1-2.1,21.1-1c5.7,1,7.4,2.9,5.1,4.3c-1.3,0.8-2.4,1.7-3.4,3c-3.3,4.3-7,7.8-12.3,11.2
		c-7.7,5-18.3,10.9-16.6,18.7c0.1,0.4,0.9,0.6,1.3,0.2c4.7-4.8,9.8-6.9,17.5-9.3c5.1-1.6,8.8-4.5,12.3-7.2c2.8-2.2,6.8-4,10.6-5.9
		c4.7-2.3,7.8-2.9,7.3-0.7c-0.3,1.3-1,2.6-2.2,3.7c-1.3,1.2-3.5,1.3-5.1,2.1c-1.6,0.9-2.6,1.7-3.8,2.8c-3.2,3.1-6.4,5.7-10.7,8.1
		c-0.6,0.3,0,1.1,0.7,1c4-0.2,8-0.5,12-0.7c1.8-0.1,4.5,0,6.2-0.6c5.5-2,7-6.6,12.2-9.2c3.9-1.9,7.1-3.6,8.6-6.7
		c0.8-1.7,0.3-3.7,0-5.3c-0.1-0.7-0.3-1.3-0.4-2c-0.3-1.1,1.1-0.3,2.3,1.8c0.8,1.4,1.5,2.8,2.2,3.9c1,1.5,1.9,2.9,2.7,4.4
		c1.2,2.5,1.2,7.8-0.3,11.4c-1.1,2.6-2.4,5.2-3.7,7.8c-0.1,0.3,0.6,0.5,0.8,0.2c3.7-4.2,6-9.3,6.6-14.5c0.4-3.8,0.6-5.8,1.8-4.5
		c0.7,0.8,1.4,1.6,2.1,2.4c3.6,4.1,6.7,5.2,13.8,6.2c8.7,1.2,22.8,1.3,28.5,6.3c4.4,3.8,4.2,9.1,8.4,13.1c0.2,0.2,0.5,0.2,0.8,0.2
		c1.8-0.3,2.1-0.9,2.3-2.1c0.2-0.8-0.6-2-0.9-2.7c-0.9-1.9-1.4-3.9-2-5.9c-1.8-5.8-6.4-9.2-14.2-12.1c-6.8-2.5-12.2-4.2-13.7-9.7
		c-0.8-2.7-1.8-5.3-3.8-7.8c-1-1.2-2.2-2.3-3.6-3.2c-2.4-1.6-3.6-2.4-2.1-2.3c0.9,0,1.8,0.1,2.7,0.1c1.7,0,3.4,0.1,5.1,0.1
		c2.8,0.1,6.3,0.4,7.7,0.7c1.4,0.3,3.7,1,5.1,1.5c0.8,0.3,1.6,0.7,2.4,1c7.5,3.5,12.9,8.2,18.9,12.7c0.6,0.4,1.8,0,1.5-0.6
		c-3.8-5.5-11.2-10.2-18.8-13.6c-0.5-0.2-1-0.4-1.5-0.6c-0.9-0.3-5.4-2.6-11-3.8c-2-0.4-4-0.8-6.1-1c-5.8-0.7-10.5-0.5-10.4-0.5
		c0.1,0,0.1,0,0.2-0.1c6.6-2.5,11.8-2,18.7-0.6c4.6,0.9,8.6,1.1,13.4,0.5c10.4-1.3,20.6,1.8,30.6-1.6c7.5-2.5,13.1-6.3,14-12
		c0.1-0.6-0.6-1-1.5-0.9C228.4,70,223.9,72,219.2,74.1z M153.2,58.3c-1.7,0.4-3.4-0.7-3.9-0.9c-0.5-0.2-0.9-0.5-1.1-0.6
		c-0.2-0.1-1-0.4-1.6-0.9c-0.6-0.4,1.3-0.7,4.1-0.2C153.5,56.2,154.9,58,153.2,58.3z M108.9,67.5c0.6-0.5,1.4-0.9,2.3-1.3
		c1.7-0.8,1.8-2,1.7-3.3c-0.3-4.7,0-10.6-4.7-14.4c-5.5-4.5-18.2-3.4-18.1-10.8c0.1-7.1-5.3-13.7-2.8-20.9c0.6-1.7,2-4.3,3-1.4
		c0.5,1.5,1.1,3,1.6,4.5c1.5,4,3.1,8,3.9,12c1,4.9,0.3,7.9,7.6,10.6c4.1,1.5,8.6,2,12.5,3.9c4.1,1.9,7.1,5.1,10.4,7.6
		c1.9,1.5,3.9,2.9,5.6,4.5c2.4,2.2,1.5,6,1.1,8.4c-0.3,2.2-1.3,4.3-2.9,6.2c-2.7,3.1-8.8,2.8-7.9,0.6c0.6-1.4,1.7-2.8,2.2-3.9
		c0.8-1.7,0.9-3.4,0.9-5.1c0-4-2.7-7.8-5.8-11.2c-3.2-3.6-7.8-6.7-13.7-8.4c-4.8-1.3-8.3-2.5-10.4-5.8c-1.4-2.2-1.6-4.6-2.5-6.9
		c-0.1-0.1-0.4-0.1-0.4,0c-0.2,3.1,1.4,7.8,4.8,10.2c1.7,1.2,3.7,2.2,6.1,2.8c6.4,1.6,9.9,4,13.7,7.5c5.7,5.4,8.2,12.8,4.5,19
		c-0.7,1.2-1.6,2.5-1.8,3.6c-0.3,2.1,3,3.1,3.3,3.3c0.3,0.2,0.6,0.2,0.6,0.2c0,0,0,0.1,0,0.1c0,0-0.2-0.1-0.4-0.1
		c-0.1,0-0.2,0-0.4,0c-1.8,0.1-3.4-0.1-5-0.3c-2.7-0.5-6.7-2.4-8.6-4.1c-1.9-1.7-2.1-3.5-2-3.6c0.1-0.1,0.1-0.1,0.1-0.2
		c0-0.2,0-0.5-0.1-0.7C107.4,69.5,107.8,68.3,108.9,67.5z M113.8,95.1c-1.9,1.9-4.5,4.2-5.7,5.1c-0.8,0.5-1.5,1-2.3,1.5
		c-0.1,0-0.1,0.1-0.2,0.2c-0.1,0.1-0.4,0.3-0.8,0.6c-0.2,0.1-0.5,0.2-0.7,0.4c-2.2,1.2-3.2,2.7-4.7,4.2c-0.1,0.1,0.1,0.1,0.2,0.1
		c0.5-0.4,1.1-0.8,1.6-1.1c0.9-0.6,0.5-0.2-0.8,0.9c-0.8,0.7-1.7,1.3-2.5,2c-4.9,3.6-10,5.6-16.7,7.4c-3.6,1-6.3,2.5-8.6,4.6
		c-1.7,1.5-3.4,4.6-2.2-0.1c0.6-2.4,3.2-4.8,5.5-6.6c3.3-2.7,7.4-5,11.2-7.4c3.4-2.1,6.6-4.3,9.2-6.9c4.2-4.1,4.4-7.9,13.2-9.2
		c1.1-0.2,1-1.1,0.2-1.4c-5.9-2.4-12.2-4.5-19.2-4.9c-7.8-0.5-14,1.1-20.7,3.4c-4.5,1.6-8.8,3.1-14,3.5c-5.6,0.5-11.3-1.4-16.3-2.9
		c-5-1.4-9.7-3.1-14.3-5c-5-2.1-4.8-4-0.5-2.8c2.7,0.8,5.3,1.7,7.7,2.3c4.9,1.1,10.1,1.7,15.3,2.3c2.2,0.2,5.6,1,7.6-0.1
		c3.5-1.8,5.8-4.5,8.9-6.6c8.4-5.7,21-7.2,32.4-5.3c3.5,0.6,6.6,1.8,9.7,3c5,2,9.3,3.5,9.6,3.7c0.1,0.1,0.3,0.2,0.5,0.3
		c0.7,0.2,1.4,0.5,2.1,0.7c1.2,0.4-0.9,0.4-4.6-0.3c-2.2-0.4-4.3-1-6.5-1.6c-1.2-0.4-2.5-0.6-3.7-0.9c-2.2-0.5-5.1-1.2-7.4-0.8
		c0,0,0,0-0.1,0c0,0-2.9-0.2-6.4,0.1c-1.9,0.2-3.9,0.5-6.3,0.8c-6.6,0.9-12.3,1.8-17.8,4.4c-8.6,4.1-15.7,4-25.9,3.3
		c-0.6,0-0.6,0.6-0.1,0.6c4.7,0.8,10.5,1.4,15.2,0.7c7.4-1,12-4.6,18.8-6.4c7.7-2,19.1-3.5,26.8-1.6c3,0.8,5.9,1.5,8.8,2.3
		c1.7,0.5,3.3,0.9,5.1,1.3c1,0.3,2.1,0.5,3.1,0.8c1.7,0.4,3,0.8,2.9,0.8c-0.1,0-1,0.1-2.1,0.2c-0.6,0.1-1.2,0.1-1.9,0.2
		c-1.5,0.1-3.1,0-4.6-0.1c-0.4,0-0.6,0.3-0.2,0.4c1.2,0.4,2.6,0.6,4,0.6c2.3,0,4.2-0.4,4.3-0.4c0.1,0,0.2,0.1,0.3,0.1
		c0.1,0,0.1,0,0.2,0c0.1,0,0.1,0,0.1,0.1c-0.1,0-0.1,0.1-0.2,0.1c-1.2,0.6-2.4,1.1-3.6,1.7c-0.3,0.1-0.1,0.5,0.3,0.4
		c0.6-0.1,1.2-0.3,1.8-0.5c0.9-0.3,0.2,0.7-1.8,2c-1.2,0.8-2.5,1.6-4,2.3c-2.7,1.3-5,2.6-7.2,4.3c-5.4,4.2-8.8,9.1-15,12.9
		c-0.1,0.1,0.1,0.2,0.2,0.2c7-2.4,10.5-7.3,14.9-11.3c1.7-1.6,3.9-2.9,6.1-4.2c3.7-2.1,6.4-3.4,6-2.9
		C117.8,91.2,115.8,93.2,113.8,95.1z M118,114.1c-1.5,2-4.7,3-8.4,3.4c-5.6,0.7-8.5-0.5-6.6-1.9c1.2-0.8,2.2-1.7,3.2-2.7
		c2.2-2.1,3.8-4,7.4-5.3c2-0.7,3.1-1.3,4.5-2.5c1.9-1.7,2.2-4.1,2.6-6.1c0.8-4.6,1.7-9,4.2-13.4c0,0,0,0,0-0.1c0,0,0.1-0.2,0.2-0.3
		c0.1-0.1,0.1,0.5-0.1,1.3c-0.1,0.5-0.2,1-0.3,1.5c0,0.3,0.7,0.7,1,0.4c0.5-0.4,0.9-0.9,1.2-1.5c0.5-0.9,2,0.8,1.5,3.9
		c-0.3,1.8-1.1,3.7-2,5.4c-2.2,4,0.4,8.4-5.8,11.3c-0.1,0.1,0,0.2,0.1,0.1c7-2,5.7-7.1,6.5-11.2c0.4-1.8,1.2-3.6,1.9-5.4
		c1.1-3,0.8-5.1,1.1-4.6c0.4,0.5,0.7,1,0.8,1.1c0,0.1,0.1,0.2,0.1,0.3c0.6,2.1,0.4,4.2,0.7,6.3c0,0.3,0.8,0.5,1,0.2c0,0,0,0,0,0
		c0,0,0,0.5,0,1.2c0,0.4,0.1,0.8,0.1,1.2c0.5,5-2,7.6-7.6,10.7C122,109.5,120,111.4,118,114.1z M131.9,79.4c3.4-0.5,5.8-1.4,6-1.2
		c0.1,0.1,0.2,0.2,0.3,0.2c0.2,0.1,0.5,0,0.5-0.1c0.1-0.1,0.1-0.3,0.1-0.4c0-0.2,0.1-0.6,0.4-0.7c0.3-0.1,0.6,0.2,1.2,0.6
		c0.4,0.2,0.8,0.4,1.4,0.4c0.3,0,0.4-0.2,0.3-0.3c-0.3-0.4-0.7-0.7-1-1c-0.1-0.1-0.2-0.2-0.2-0.4c-0.1-0.2,0-0.5,0.2-0.8
		c0.1-0.1,0.2-0.3,0.4-0.4c1.5-1.9,1.9-3.6,1.1-5.7c-1-2.7-1.4-4.9-1.1-7.1c0.5-3.8,3.5-6.2,4.1-5.8c0.6,0.4,0.8,1.1,0.6,1.6
		c-0.2,0.3-0.3,0.6-0.4,0.9c-0.4,1-0.8,2.3,0,3.2c0.2,0.3,0.8,0.2,1.1,0c0.7-0.7,0.6-1.7,0.8-2.6c0.1-0.3,0.2-0.5,0.4-0.8
		c0.2-0.4,0.6-0.7,0.8-0.6c0.2,0.1-0.1,0.5-0.1,1c0,0.3,0.1,0.6,0.4,0.9c0.2,0.1,0.5,0.1,0.5-0.1c0.1-0.3,0.2-0.6,0.3-0.9
		c0-0.1,0-0.2,0.1-0.3c0.1-0.1,0.5-0.1,0.9,0c0.3,0.1,0.5,0.1,0.8,0.2c0.3,0,0.9,0.2,1.7,0.3c0.9,0.2,1.6,0.4,1.5,0.6
		c-0.1,0.1-0.1,0.2-0.2,0.4c-0.3,0.6-0.5,1.4-0.1,2c0.1,0.2,0.6,0.3,0.7,0.1c0.4-0.5,0.5-1.1,0.6-1.6c0.1-0.2,0.1-0.3,0.2-0.5
		c0.1-0.3,0.6-0.5,1-0.5c0.4,0-1,2.9-2.3,6.6c-0.8,2.4-1.5,4.7-2.3,7.1c-0.3,0.8-0.6,1.6-1.1,2.3c-0.7,1.2-1.6,2.1-1.5,2
		c0,0,0-0.1,0-0.2c0-0.1-0.2-0.2-0.5-0.2c-0.6,0.1-1.3,0.4-2,0.2c-0.5-0.1-1,0.2-0.5,0.5c0.3,0.2,0.8,0.3,1.3,0.4
		c0.8,0.1,0.9,0.3,0.1,0.8c-0.8,0.6-1.7,0.9-1.9,0.9c-0.1,0-0.2,0-0.4,0c-0.9-0.1-1.5-0.4-2.2-0.8c-0.5-0.3-1.6,0-1.3,0.5
		c0.2,0.3,0.4,0.5,0.8,0.7c0.5,0.3,0,0.9-1.5,1.1c-1.5,0.2-3.4,0.3-4.1,0.2c-0.7,0-3.9-0.2-6.8-1.1
		C127.9,80.5,128.5,79.8,131.9,79.4z M192.4,118.6c-4.7-3.2-11.6-3.7-18-4.7c-4.2-0.6-8.5-1.2-12.7-1.8c-7.5-1.1-10-5.2-13-9.3
		c-1-1.4-2.1-2.7-3.2-4c-1.9-2.1-4.4-4.8-5.6-6c-1.2-1.2-2.6-2.3-3-2.7c-0.4-0.4,1.3,0.6,3.3,2.5c1.2,1.1,2.3,2.2,3.5,3.4
		c0.2,0.2,0.6,0.1,0.5-0.1c-0.6-1.5-1.7-2.9-3.2-4.2c-2.5-2-4.5-3-3.6-2.7c0.9,0.2,4.7,2,8.3,4.1c2.2,1.2,4.4,2.5,6.5,3.7
		c4,2.4,7.9,4.7,10.8,7.7c1.9,1.9,3,3.9,5.8,5.4c0,0,0.1,0,0.1,0c0.1,0,0.4,0.3,0.9,0.6c0.3,0.2,0.7,0.3,1,0.2
		c0.1,0,0.2-0.1,0.2-0.2c0-0.3-0.3-0.5-0.7-0.7c-0.6-0.3-3.3-3.2-6.7-6.3c-2.5-2.3-5.3-4.4-8.6-6.4c-2.2-1.4-4.4-2.8-6.7-4.2
		c-3.7-2.3-6.8-4.3-7-4.5c-0.1-0.1-0.3-0.2-0.5-0.3c-0.3-0.1-0.5-0.2-0.8-0.2c-0.4-0.1-0.9-0.3-1.1-0.4c-0.2-0.1,0.2,0,0.8,0.2
		c0.4,0.1,0.7,0.2,1.1,0.4c2,0.7,3.7,1.7,5.6,2.4c0.3,0.1,0.6-0.1,0.4-0.3c-0.5-0.5-1.1-0.9-1.8-1.3c-1.1-0.7,2.1,0.2,6.4,2.6
		c2.8,1.5,5.3,3.2,7.6,4.6c5.9,3.8,7.2,8.8,12,12.9c0.6,0.5,1.3,1,2.1,1.3c1.3,0.6,1.6,0.8,0.4,0.6c-0.7-0.1-1.5-0.3-2.2-0.4
		c-0.4-0.1-0.6,0.3-0.2,0.4c3.2,0.9,6.7,1.4,9.9,2.3c1.4,0.4,2.8,0.7,4.3,1c2.4,0.5,8.1,3,10.6,6.5c2.3,3.2,3.5,6.8,5.2,10.1
		c0,0.1,0.1,0.1,0.2,0.2c0.2,0-0.3,1.3-1.1,0.5c-0.3-0.3-0.8-0.9-1.2-1.7C196.9,126.2,196.7,121.6,192.4,118.6z M174.9,107.4
		c4.6,3.6,13.3,4.9,18.7,8.1c3.3,2,4.7,4.9,6,7.7c0.7,1.4,1.4,2.8,1.9,4.3c0.1,0.3,0.2,0.8,0.3,1.3c0.1,0.7-0.2-1.9-2.2-5.5
		c-1.5-2.6-3.6-5.1-6.4-7c-2.8-2-5.8-3.5-9.6-4.6c-2.6-0.8-5.6-1.1-8.2-1.9c-4-1.1-5.4-4.3-6.9-6.7c-3.2-5.2-9.4-9-16-12.4
		c-1.3-0.7-2.8-1.5-4.4-2.2c-2.5-1.2-4.1-1.9-3.5-1.9c0.7,0,2.4,0.6,4.1,1.2c1,0.4,2,0.7,3,1c0.3,0.1,0.5-0.1,0.3-0.3
		c-0.6-0.4-1.3-0.7-2.1-1.1c-1.2-0.6-1.9-1-1.6-1c0.3,0,0.7,0.1,1,0.2c0.1,0.1,0.3,0.1,0.5,0.1c8.4,1.1,14.9,4.6,18,9.8
		C170.2,100.3,170.7,104.1,174.9,107.4z M197.5,82.1c-5.2-0.3-9.9,1.1-15.1,0.5c-7.6-0.9-13.1-3.4-20.9-1.4c-3.8,1-7,2.6-11,3.5
		c-1,0.2-2,0.4-3,0.5c-1.7,0.2-3.2,0.1-3.4,0.1c-0.1,0-0.2-0.1-0.3-0.1c-0.1,0-0.2,0-0.2,0c-0.1,0-0.6,0-1.3-0.1
		c-0.6-0.1-0.6-0.3,0-0.4c0.6-0.1,1.2-0.1,1.3-0.1c0,0,0.1,0,0.1,0c2.8-0.4,5.7-1.1,7.9-2.3c0.2-0.1-0.1-0.3-0.3-0.2
		c-0.5,0.2-1,0.4-1.6,0.5c-0.9,0.3-0.6,0,0.5-0.9c1-0.8,2.9-2,4.3-2.6c0.9-0.3,1.8-0.7,2.6-1c0.2-0.1,0-0.2-0.1-0.2
		c-0.7,0.2-1.5,0.4-2.2,0.6c-1.2,0.4-1.9,0.6-1.7,0.4c0.2-0.2,2-0.9,4-1.4c1.2-0.3,2.5-0.6,3.8-0.9c4.9-0.9,10.1,0.3,14.7,1.3
		c7.9,1.8,16,3.3,24.3,4.1c12.3,1.3,21.3-1.8,28.2-8.4c0.3-0.3-0.4-0.6-0.8-0.4c-6.2,4.2-11,7.7-20.7,7.9
		c-8.6,0.2-17.8-1.6-25.8-3.4c-6.3-1.4-11.4-3.5-18.2-3c-1.5,0.1-3.1,0.4-4.5,0.8c-2.4,0.6-3.6,0.9-3,0.2c0.4-0.4,0.8-0.9,1.2-1.2
		c0.2-0.2,0.4-0.3,0.7-0.5c0.4-0.3,1.6-0.8,2.8-1.1c1.1-0.4,3.1-0.9,4.3-1.1c1.3-0.2,7,0.5,12.4,2c8.1,2.3,16.1,5.3,24.1,6
		c9.5,0.8,15.9-2.8,23-5.7c4.9-2.1,9.2,0.3,5.6,3.3c-4.1,3.4-10.9,5.2-18.3,5.4C206.4,82.9,202,82.3,197.5,82.1z"/>
	<path class="st1" d="M159.3,109.1c-2.6-2-5.9-3.6-8.6-5.5c-0.2-0.2-0.7,0.1-0.5,0.2c2.4,2.1,5.2,4.3,8.8,5.5
		C159.3,109.3,159.4,109.2,159.3,109.1z"/>
	<path class="st1" d="M160.4,107.4c-0.4-0.7-1.5-1.2-2.2-1.7c-0.9-0.7-1.8-1.4-2.6-2.2c-0.3-0.3-0.9,0-0.7,0.3
		c0.6,0.8,1.3,1.6,2.2,2.3c0.8,0.6,1.7,1.4,2.9,1.6C160.2,107.8,160.5,107.6,160.4,107.4z"/>
	<path class="st1" d="M163.2,106.5c-0.2-0.4-0.8-0.6-1.2-0.8c-0.5-0.3-1-0.6-1.4-1c-0.3-0.3-0.9,0-0.6,0.2c0.4,0.4,0.8,0.8,1.3,1.1
		c0.4,0.3,1,0.7,1.7,0.7C163.1,106.7,163.3,106.6,163.2,106.5z"/>
	<path class="st1" d="M166.5,110.5c-0.9-0.8-2.5-1.4-3.9-1.8c-0.4-0.1-0.7,0.2-0.4,0.4c1.1,0.7,2.5,1.4,4,1.6
		C166.4,110.8,166.6,110.6,166.5,110.5z"/>
	<path class="st1" d="M164.1,111.1c-1-0.6-2.5-0.9-3.8-1.3c-0.2-0.1-0.4,0.1-0.2,0.2c1.1,0.5,2.4,1.1,3.7,1.3
		C164.1,111.4,164.3,111.2,164.1,111.1z"/>
	<path class="st1" d="M163.7,92.9c-1.3-1-3.1-1.7-4.6-2.4c-0.3-0.2-0.7,0.1-0.4,0.3c1.5,0.8,3,1.8,4.8,2.4
		C163.7,93.2,163.9,93,163.7,92.9z"/>
	<path class="st1" d="M162,94.1c-1.1-1.1-2.8-2.2-4.8-2.7c-0.3-0.1-0.5,0.1-0.3,0.3c1.5,0.9,3.2,1.7,4.7,2.6
		C161.9,94.3,162.2,94.2,162,94.1z"/>
	<path class="st1" d="M161.1,98.1c-2.3-2.3-6.8-4.8-10.9-5.6c-0.4-0.1-0.6,0.3-0.3,0.4c1.6,0.9,3.5,1.6,5.2,2.5c1.9,1,3.6,2,5.6,3
		C160.9,98.5,161.4,98.3,161.1,98.1z"/>
	<path class="st1" d="M131.7,132.8c-1.8,1.2-2.8,2.8-3.9,4.3c-1.3,1.7-2.5,3.4-3.8,5c-0.3,0.4,0.6,0.7,0.9,0.3
		c1.4-1.6,2.9-3.2,4.3-4.9c1.3-1.4,2.8-2.9,3.3-4.5C132.5,132.8,132,132.6,131.7,132.8z"/>
	<path class="st1" d="M85.2,58.2c-2.1-1.6-5.7-2.9-9-2.1c-0.5,0.1-0.5,0.6,0.1,0.6c3,0.5,5.9,0.6,8.5,1.8
		C85.2,58.7,85.4,58.4,85.2,58.2z"/>
	<path class="st1" d="M93.3,52.1c-1.9-1.4-4.5-3.1-7.5-3.3c-0.5,0-0.5,0.4-0.3,0.5c0.9,0.7,2.1,1.1,3.2,1.6c1.3,0.6,2.6,1.1,3.8,1.7
		C93.1,53,93.8,52.5,93.3,52.1z"/>
	<path class="st1" d="M164.4,30.5c-0.1-0.3-0.8-0.3-0.8,0c-0.3,2.5-0.8,4.8-1.8,7.2c-1.2,2.8-3.7,5.2-4.7,8
		c-0.1,0.1,0.3,0.3,0.4,0.1C162.5,42,166.1,35.4,164.4,30.5z"/>
	<path class="st1" d="M212.5,68.9c-5.3-1-11.8-1-17.2-0.3c-0.5,0.1-0.3,0.6,0.2,0.6c5.7-0.1,11.3,0,17,0.1
		C212.8,69.3,212.8,68.9,212.5,68.9z"/>
	<path class="st1" d="M37.6,42.9c-5.2-1.8-12.7-2.1-17.8-0.1c-0.4,0.2-0.2,0.7,0.3,0.6c2.7-0.2,5.3-0.7,8.1-0.7
		c3.1-0.1,6.1,0.3,9.1,0.7C37.8,43.5,38,43.1,37.6,42.9z"/>
	<path class="st1" d="M167.2,147.9c-0.2-0.3-1-0.2-1.1,0.1c-0.6,2.8,0.6,5.8,0.1,8.7c-0.1,0.5,1,0.7,1.1,0.2
		C168.2,154.1,169.3,150.6,167.2,147.9z"/>
	<path class="st1" d="M162.6,152.1c-0.1-0.2-0.1-0.4-0.2-0.6c-0.1-0.2-0.6-0.3-0.8-0.1c-1,1.1-0.9,2.4-0.6,3.6
		c0.1,0.4,1,0.5,1.2,0.1c0.2-0.3,0.3-0.7,0.4-1c0.2-0.6,0.3-1,0.3-1.1c0,0,0.1-0.1,0-0.1c0-0.1-0.1-0.1-0.1-0.2
		C162.8,152.7,162.7,152.4,162.6,152.1z"/>
	<path class="st1" d="M243.9,103.8c-0.5-0.1-1.1,0.2-0.7,0.5c2.6,2.3,5.3,4.3,5.7,7.3c0.1,0.5,1.3,0.5,1.3,0
		C250.3,108.6,248.5,104.9,243.9,103.8z"/>
	<path class="st1" d="M252.8,104.4c-0.6-0.6-1.6-1.3-2.8-1.1c-0.3,0.1-0.3,0.2-0.2,0.4c0.4,0.5,1.1,0.8,1.6,1.2
		c0.6,0.5,0.9,1,0.8,1.7c0,0.5,1.2,0.6,1.3,0.1C253.6,105.9,253.4,105.1,252.8,104.4z"/>
	<path class="st1" d="M120,9.8c-0.6-0.4-1.4,0.2-0.8,0.6c3,2.1,4.6,4.5,6.3,7.2c0.1,0.2,0.6,0.2,0.6-0.1
		C125.8,14.5,123.2,11.9,120,9.8z"/>
	<path class="st1" d="M126.8,31.2c-0.3-0.2-0.9,0.1-0.6,0.3c1,1,2.1,2,3,3.2c1,1.2,1.5,2.6,2.4,3.8c0.2,0.2,0.7,0.1,0.7-0.1
		C132.4,35.8,129.7,32.9,126.8,31.2z"/>
	<path class="st1" d="M136.1,25.8c-0.3-0.2-0.8,0.1-0.5,0.3c0.9,0.6,1.6,1.3,2.1,2c0.4,0.6,0.5,1.3,1,2c0.1,0.2,0.6,0.2,0.6,0
		C139.8,28.5,137.9,26.7,136.1,25.8z"/>
	<path class="st1" d="M139.1,18c-0.5-0.7-0.9-1.4-1.6-2c-0.2-0.2-0.7-0.1-0.6,0.2c0.3,0.7,0.8,1.4,1.2,2c0.5,0.7,0.9,1.4,1.6,2
		c0.2,0.1,0.7,0.1,0.6-0.1C140.1,19.4,139.6,18.7,139.1,18z"/>
	<path class="st1" d="M195.4,89.8c-0.6,0-0.5,0.5-0.1,0.6c1.4,0.3,2.7,0.6,4,1.2c1.4,0.6,2.3,1.4,3.5,2.1c0.3,0.2,0.9,0,0.7-0.3
		C202.3,91.4,198.6,90,195.4,89.8z"/>
	<path class="st1" d="M185.9,95.5c-0.4-0.3-2.6-2-5.6-3.3c-1.8-0.8-3.8-1.4-5.7-1.9c-0.6-0.2-1,0.4-0.4,0.6
		c4.1,1.5,7.5,3.3,11.2,5.1c0.1,0.1,0.3,0.1,0.4,0c0.2-0.1,0.3-0.1,0.4-0.1c0.1,0.1,0.2,0.1,0.3,0.2c0.1,0.1,0.2,0,0.1-0.1
		C186.4,95.8,186.2,95.7,185.9,95.5z"/>
	<path class="st1" d="M209.8,105.9c-0.6-0.4-1.6,0.1-1.1,0.6c1.8,1.5,2.9,3.3,3.8,5.1c0.1,0.2,0.7,0.3,0.7,0
		C213.6,109.4,212.2,107.4,209.8,105.9z"/>
	<path class="st1" d="M72.3,140.1c-3.4,1-5.7,3.7-9.8,3.5c-0.2,0-0.3,0.2-0.1,0.2c2,0.5,3.7,0.1,5.3-0.5c2.6-1.1,5.1-1,5,0.5
		c-0.1,0.9-0.6,1.7-2.1,2.1c-0.1,0,0,0.1,0,0.1c4-0.9,4-3.3,2.7-5.6C73.2,140,72.7,139.9,72.3,140.1z"/>
	<path class="st1" d="M68.7,146c-2.1,0.4-6.1,1.1-6.3-1.1c0-0.5-0.3-1.2-1.3-1.1c-0.2,0-0.2,0.2,0,0.3c0.6,0.3,0.4,1,0.7,1.4
		c0.4,0.5,1,0.8,1.8,1.1C65.2,147.1,67.2,146.6,68.7,146C68.8,146.1,68.7,146,68.7,146z"/>
	<path class="st1" d="M227,48.2c-1.6-2.1-3.7-3.7-4.6-6.1c-0.1-0.1-0.4-0.1-0.4,0c0.2,1.6,0.7,3.2,1.7,4.7c0.9,1.4,2.4,2.4,0.5,3.9
		c-1.5,1.2-4.3,0.9-6.2,0.6c-2.6-0.4-7.2-2.9-8-4.6c-1.1-2.2,0.2-5.1,2.8-6.7c0.2-0.1,0-0.4-0.2-0.3c-3.8,0.2-4.4,3.9-4.3,5.8
		c0.1,1.3,2.4,2.6,3.3,3.6c1.2,1.3,3,2.4,4.9,3.2c2.9,1.3,8.6,1.1,10.3-1.2C227.3,50.3,227.8,49.2,227,48.2z"/>
	<path class="st1" d="M222,40.5c-1.1-1-2.6-1.8-4.3-2.2c-1.5-0.4-4.3-0.9-5.5,0c-0.2,0.1-0.1,0.4,0.1,0.5c1.2,0.3,2.5,0.1,3.8,0.1
		c2,0.1,3.8,0.9,5,2C221.5,41.2,222.4,40.8,222,40.5z"/>
	<path class="st1" d="M214,44.2c-0.4-0.6-0.3-1.3,0.1-1.9c0.3-0.4-0.5-0.8-1-0.5c-1,0.7-1.1,1.6-0.7,2.5c0.3,0.7,1.4,1.8,2.6,1.5
		c0.2,0,0.2-0.1,0.2-0.2C215.1,45,214.4,44.6,214,44.2z"/>
	<path class="st1" d="M219.7,40.5c-0.2,0-0.4,0-0.5,0c-0.6,0.4-0.1,1.3-0.3,1.9c-0.3,1-0.7,1.8-2,2.4c-0.1,0,0,0.1,0.1,0.1
		c1.2-0.5,2.3-1.1,3-1.9C220.4,42.3,220.8,40.8,219.7,40.5z"/>
	<path class="st1" d="M223.8,49.4c-1.7,0.2-2.8,0.7-4.6,0.5c-1.8-0.2-3.2-1-4.3-1.8c-0.1-0.1-0.4,0-0.3,0.1c0.4,1.4,2.3,2.2,4.3,2.5
		c1.7,0.3,4.5,0.2,5.3-1C224.4,49.6,224.1,49.4,223.8,49.4z"/>
	<path class="st1" d="M222.2,47.8c-1.8,0.3-3.4,0.6-5.2,0.1c-0.3-0.1-0.6,0.2-0.3,0.3c1.6,0.9,4.5,1.1,5.9-0.1
		C222.6,48,222.5,47.8,222.2,47.8z"/>
	<path class="st1" d="M200.3,34.5c-0.3-0.4-0.6-0.8-0.9-1.2c0-0.1-0.1-0.2-0.1-0.3c0-0.1,0-0.3,0.1-0.4c0-0.1,0.3-0.1,0.4-0.2
		c0-0.1,0-0.2-0.1-0.2c-1.2-0.6-2.2,0.5-1.8,1.2c0.6,1.4,2.1,2.7,4.1,3.4c0.2,0.1,0.3-0.1,0.2-0.1C201.6,35.9,200.9,35.2,200.3,34.5
		z"/>
	<path class="st1" d="M205.4,32c-1-0.4-2.9-0.9-3.6,0c-0.1,0.1,0,0.3,0.2,0.4c0.6,0.2,1.1,0.1,1.7,0.2c1.4,0.1,2.1,0.8,2.5,1.6
		c0.4,0.8,0.5,1.8-0.4,2.5c-0.7,0.5-2.1,0.6-3.1,0.5c-0.1,0-0.2,0.1-0.1,0.1c1.1,0.5,2.2,0.4,3.4,0c1.3-0.5,1.5-1.6,1.6-2.6
		C207.7,33.6,206.6,32.5,205.4,32z"/>
	<path class="st1" d="M171,6.5c-0.1,0-0.1,0.1-0.1,0.1c-0.1,0.1-0.2,0.1-0.4,0.2c-0.1,0-0.2,0.1-0.2,0.2c-0.7,1.6,1.2,3,2.9,4.1
		c1.5,0.9,3.3,1.1,5,0.2c1.9-0.9,1.2-2.4-0.3-3.3C176.5,7.1,173,5.9,171,6.5z M173.6,10.3c-1.3-0.9-2.1-2-2.3-3.2c0,0,0,0,0,0
		c0,0,0.3,0.1,0.6,0.1c0.2,0,0.4,0.1,0.7,0.1c0.9,0.1,1.8,0.4,2.6,0.7c1.3,0.5,3.3,1.5,2.1,2.6C176.2,11.7,174.6,11,173.6,10.3z"/>
	<path class="st1" d="M43.7,43.5c-0.6-0.1-1.3-0.2-1.8-0.4c-0.5-0.2-1.3,0.1-0.9,0.5c0.6,0.5,1.5,0.9,2.6,0.9c0.3,0,0.6-0.1,0.7-0.4
		C44.3,43.8,44,43.5,43.7,43.5z"/>
	<path class="st1" d="M67.3,45.1c-3.3-1.7-8.9-1.5-11.7,0.6c-3.2,2.4,2.2,4.9,5.7,4.6c0.3,0,0.2-0.3,0-0.4c-1.1-0.4-2.3-0.7-3.3-1.2
		c-1.9-1-1-2.3,0.7-2.9c2.5-1,5.6-0.6,8.3-0.3C67.3,45.5,67.6,45.2,67.3,45.1z"/>
	<path class="st1" d="M14.1,94.5c-4.3,0.7-7.1,4.3-8,6.8c-0.1,0.4,0.7,0.5,0.9,0.1c0.7-1.4,1.7-2.6,3.1-3.7c1.3-1.1,3.1-1.7,4.5-2.8
		C14.8,94.7,14.5,94.4,14.1,94.5z"/>
	<path class="st1" d="M6,95.1c-1,0.2-1.7,1-2.4,1.5c-0.3,0.2,0.2,0.6,0.6,0.4c0.7-0.5,1.9-0.9,2.2-1.6C6.5,95.2,6.2,95,6,95.1z"/>
	<path class="st1" d="M3.6,89.5c-3,1-4.2,3.6-4.3,5.5c0,0.4,1,0.5,1.1,0.1c0.2-1,0.7-2,1.4-2.9c0.7-0.9,1.7-1.5,2.5-2.3
		C4.5,89.6,3.9,89.3,3.6,89.5z"/>
	<path class="st1" d="M130.5,153.5c-0.1-0.3-0.7-0.3-0.9-0.1c-2.1,2.8-2.3,6.1-3.9,9c-0.2,0.3,0.5,0.6,0.8,0.3
		C128.9,160.1,131.4,156.7,130.5,153.5z"/>
	<path class="st1" d="M134.7,156.9c-0.2-0.2-0.6-0.2-0.8-0.1c-0.7,0.4-0.6,1.2-0.8,1.8c-0.3,0.9-0.7,1.8-1.5,2.6
		c-0.3,0.3,0.5,0.6,0.8,0.3c0.8-0.8,1.5-1.7,2.1-2.6C134.8,158.4,135.3,157.6,134.7,156.9z"/>
	<path class="st1" d="M138.7,158.3c-0.2,0.5-0.2,1.1-0.3,1.6c-0.1,0.5,1.1,0.7,1.3,0.2c0.2-0.5,0.6-1,0.7-1.5
		C140.6,157.9,138.9,157.6,138.7,158.3z"/>
	<path class="st1" d="M89.5,147c-1.3,0.9-1.8,2.3-2.8,3.4c-1.1,1.4-2.6,2.6-4.2,3.7c-0.5,0.4,0.4,0.9,0.9,0.6c1.6-1,3-2.2,4.2-3.4
		c1.2-1.1,2.8-2.7,2.7-4.1C90.4,146.9,89.8,146.8,89.5,147z"/>
	<path class="st1" d="M92,151.8c-0.1-0.2-0.4-0.2-0.7-0.2c-0.7,0.2-0.9,0.9-1.2,1.3c-0.4,0.6-1,1.1-1.6,1.6
		c-0.3,0.3,0.3,0.7,0.7,0.4c0.6-0.5,1.2-1,1.8-1.5C91.5,153,92.3,152.4,92,151.8z"/>
	<path class="st1" d="M96.1,153.3c-0.1,0-0.1-0.1-0.2-0.1c-0.3-0.1-0.7-0.1-1,0c-0.8,0.4-1.3,0.9-1.8,1.4c-0.5,0.6-1,1.3-1.1,2
		c-0.1,0.4,0.8,0.9,1.3,0.5c0.6-0.5,1-1,1.6-1.6c0.5-0.5,1.1-1,1.4-1.6C96.5,153.7,96.3,153.5,96.1,153.3z"/>
	<path class="st1" d="M51.6,132c-4.9,1.4-8.8,5.7-7.8,9.2c0.1,0.2,0.7,0.3,0.8,0.1c0.8-1.5,1.3-3,2.4-4.4c1.3-1.7,3.4-3.1,5.2-4.4
		C52.6,132.1,52.1,131.8,51.6,132z"/>
	<path class="st1" d="M41.9,131c-1.7,0.9-2.7,2.5-3.8,3.8c-0.4,0.5,0.7,0.9,1.2,0.4c1.1-1.2,2.8-2.5,3.3-4
		C42.7,131,42.2,130.9,41.9,131z"/>
	<path class="st1" d="M53.1,136.8c-1.8,0-3.2,1.4-3.8,2.4c-0.3,0.5,0.8,0.9,1.2,0.4c0.3-0.5,0.8-0.9,1.3-1.2c0.5-0.4,1.2-0.6,1.7-1
		C53.8,137.1,53.6,136.8,53.1,136.8z"/>
	<path class="st1" d="M267.2,78c-0.9-0.1-1.1,0.6-0.5,0.8c2.1,0.9,4,1.8,5.5,3.2c1.4,1.3,2,2.8,3,4.2c0.2,0.3,0.9,0.2,1-0.1
		C277.5,82.7,272,78.6,267.2,78z"/>
	<path class="st1" d="M176.6,141.4c-0.5-0.4-1.5-0.1-1.1,0.4c4,5.1,4.9,10,5,15.6c0,0.3,0.6,0.3,0.7,0.1
		C183.9,152,181.4,145.9,176.6,141.4z"/>
	<path class="st1" d="M185.5,142.6c-0.5-0.5-1.9-0.3-1.8,0.3c0.4,1.9,0.7,3.9,1.2,5.8c0.1,0.3,0.8,0.6,1.1,0.2
		C187.6,146.8,187.2,144.5,185.5,142.6z"/>
	<path class="st1" d="M110.4,149.1c-0.2-0.4-1-0.5-1.3-0.1c-1.5,2.1-1.7,4.4-3,6.6c-1.6,2.7-4.2,5-7.1,7.1c-0.4,0.3,0.2,0.8,0.7,0.6
		C105.6,160.5,112.7,154.2,110.4,149.1z"/>
	<path class="st1" d="M31.1,113c-7.6,4.4-8.7,12.5-5.3,18.4c0.2,0.4,1.1,0.2,0.9-0.2c-2-6.7,0.7-11.9,5.2-17.8
		C32.2,113,31.5,112.7,31.1,113z"/>
	<path class="st1" d="M19.7,111.6c-4.5,0.5-5.7,4.6-4.7,7c0.2,0.5,1.4,0.4,1.3-0.1c-0.2-1.2,0.1-2.4,0.9-3.5
		c0.7-1.1,2.2-1.8,3.2-2.8C20.7,111.9,20.1,111.6,19.7,111.6z"/>
	<path class="st1" d="M2.1,79.3c-1.4,0.1-2.3,1-3,1.7c-0.8,0.8-1.2,1.8-1.3,2.7c0,0.5,1.1,0.6,1.3,0.1c0.2-0.8,0.6-1.5,1.2-2.1
		C1,81,2.2,80.5,2.6,79.8C2.8,79.6,2.5,79.2,2.1,79.3z"/>
	<path class="st1" d="M196.2,10.4c-0.1-0.4-1.2-0.3-1.2,0.1c0.3,3.3,0.8,6.7,2.2,9.9c0.1,0.3,0.7,0.2,0.7-0.1
		C198,17.1,197.2,13.7,196.2,10.4z"/>
	<path class="st1" d="M203.4,13.4c-0.1-0.5-1.3-0.6-1.3,0c0.1,2.1-0.1,4.5,1.1,6.5c0.2,0.3,0.9,0.3,1,0
		C204.8,17.9,203.9,15.5,203.4,13.4z"/>
	<path class="st1" d="M71.6,19.7c-1.9-2.6-7-4.1-11.1-4.5c-1.1-0.1-1.4,0.9-0.3,1c2.1,0.3,4.1,0.8,6,1.6c1.7,0.6,3.1,1.6,4.8,2.2
		C71.2,20.2,71.7,20,71.6,19.7z"/>
	<path class="st1" d="M72.1,14.6c-0.4-0.5-1.3-0.9-1.9-1.3c-0.8-0.4-1.6-0.8-2.4-1.2c-0.5-0.2-1.1,0.2-0.6,0.4
		c0.7,0.5,1.4,0.9,2.2,1.3c0.7,0.4,1.4,0.9,2.3,1.1C72.1,15,72.3,14.7,72.1,14.6z"/>
	<path class="st1" d="M250,64.5c-1,0.1-0.9,1,0.1,1c3.6,0,6.9,0.6,10,1.7c2.9,1,4.7,2.7,7.2,4.1c0.3,0.2,0.9,0.1,0.8-0.2
		C266.8,66.1,256.5,63.9,250,64.5z"/>
	<path class="st1" d="M261.5,61.9c-0.5-1.1-2.6-1.4-4.1-1.7c-1.9-0.4-3.9-0.4-5.8-0.1c-0.9,0.1-0.5,0.9,0.3,0.9
		c1.7,0,3.4,0.2,5.1,0.5c1.3,0.3,2.6,1,4,0.9C261.4,62.4,261.6,62.2,261.5,61.9z"/>
	<path class="st1" d="M256.6,54.4c-1.9-1-4.5-1-6.7-0.5c-0.5,0.1-0.4,0.6,0.2,0.6c2.2-0.2,4.1,0.1,6.2,0.3
		C256.6,54.8,256.9,54.5,256.6,54.4z"/>
	<path class="st1" d="M248.4,79.8c-0.6-0.1-0.9,0.5-0.3,0.6c1.6,0.5,3.1,1,4.5,1.7c1.3,0.7,2.3,1.5,3.5,2.2c0.3,0.2,0.8,0,0.7-0.3
		C255.5,81.9,251.7,80.4,248.4,79.8z"/>
	<path class="st1" d="M249.1,86.8c-0.6,0-0.6,0.6-0.1,0.7c1,0.1,1.9,0.4,2.7,0.8c0.7,0.4,1.1,0.9,1.7,1.4c0.3,0.2,0.8,0,0.8-0.2
		C254.2,87.8,251.2,86.9,249.1,86.8z"/>
</g>
<g>
	<path class="st1" d="M1258.3,639c17-1.8,29.1-9.2,39.8-18.2c2.8-2.4,5.5-4.8,8.5-7.1c5-3.9,16.7,0.7,21.9,1.8
		c4.5,1,9.3,2.1,14.2,3.1c5.7,1.1,11,2.1,11.8,2.5c0.5,0.3,1,0.5,1.5,0.7c0.6,0.3,0.9,0.1,1-0.2c0.1-0.5,0-0.9,0.2-0.8
		c0.1,0,0.2,0,0.4,0c12.9,1,21.4-14.4,25.8-20.6c6.7-9.3,9.9-19.1,5.6-29.1c-0.1-0.2-0.6-0.4-0.5,0c3,8.8-0.8,17.5-6,25.8
		c-4.6,7.3-12.7,21.4-25.5,22.2c-0.4,0-0.7,0-1.1,0c-0.6,0-3-1.2-5.1-2.8c-1.3-1-2.5-2-3.6-3c0,0,0-0.1-0.1-0.1
		c-3.7-3.5-6.3-7.4-6.8-11.6c-0.1-1.3,0-2.7,0.3-4.1c0.5-2.3,1.9-4,2-4.4c0-0.4,0.6-2.2,1.7-4c1.1-1.8,2.5-3.2,2.9-3.1
		c0.2,0.1,0.4,0.2,0.6,0.2c1.2,0.4,0.6-1.2,0.1-1.5c-0.1,0-0.1-0.1-0.2-0.1c-0.1-0.1-0.1-0.3,0.1-0.5c0.1-0.1,0.2-0.3,0.3-0.4
		c0,0,0-0.1-0.1-0.1c-0.1,0.1-0.2,0.3-0.3,0.4c-0.2,0.2-3.9-1.8-8.7-4.1c-4-2-8.3-3.7-12.5-5c-0.9-0.3-0.6,0.9-0.3,1.1
		c3.2,2.1,7,4.1,10.9,5.9c4.9,2.3,8.6,4.4,7.9,5.2c-0.7,0.8-1.3,1.2-1.4,1c-0.1-0.2-0.3-0.4-0.4-0.4c-2.6-1.2-5.7-2.4-8.8-2.8
		c-0.8-0.1-0.2,1,0.1,1.1c2.4,1.4,5.6,2.4,8.6,3.1c0.1,0,0.1,0,0.1,0c0.1,0-0.3,0.5-0.8,1.2c-0.5,0.7-1.6,0.8-2.4,0.4
		c-0.5-0.3-1.1-0.5-1.6-0.8c-1.1-0.5-2.1-1.1-3.5-1.3c-0.9-0.1-0.3,1.1-0.1,1.2c0.9,0.8,2,1.3,3.2,1.9c0.4,0.2,0.8,0.4,1.3,0.6
		c0.7,0.3-0.1,2.6-0.8,5.4c-0.4,1.6-0.5,3.2-0.1,5c0.3,1.5,0.9,3,1.8,4.6c1.3,2.4-0.1,3.1-4,1.9c-2.4-0.7-4.8-1.3-7.3-1.8
		c-0.7-0.1-0.4,0.7-0.1,0.8c2.4,1,4.9,1.9,7.5,2.7c4.3,1.3,9.1,3.4,10.8,4.9s-0.3,1.9-4.4,0.6c-2.7-0.8-5.3-1.7-7.4-2.3
		c-6.9-2-14.1-3.4-21.3-4.9c-9.4-2-16.7,8.9-21.7,13.1c-19.1,15.9-45.1,15.2-71.7,13.8c-14.7-0.7-27.3-9.3-38.4-15.3
		c-13-7-24.4-15.6-30.7-26.4c-0.7-1.1-1.2-2.3-1.7-3.5c-0.7-2,1.9-0.9,6.9,1.2c7.8,3.3,17.5,4.5,26.5,4.1c0.4,0,0.1-0.5-0.2-0.5
		c-13.9,0-23.4-3.8-34.2-9.1c-0.1,0-0.1,0-0.2-0.1c-0.1,0-0.8-3.3-0.8-7.4c0-4.6,0.4-9.3,0.3-13.8c-0.1-2.4-0.4-4.8-0.7-7
		c-0.6-3.9,1.4-4.4,6-2.6c2.8,1.2,5.8,1.8,9.2,1.7c0.7,0,0.2-0.8-0.2-0.9c-3.1-0.8-6-1.7-8.7-2.7c-4.6-1.8-7.9-7.5-7-11.6
		c0.5-2.5,1.5-5,3.2-7.6c5.8-8.9,16.9-16.4,26.1-23.6c0.1-0.1,0.3-0.2,0.4-0.3c0.2-0.2,2.1-0.5,4.1-1.1c1.2-0.3,2.4-0.7,3.6-1
		c3.6-1,7.4-1.5,11.3-1.8c6.6-0.4,12.9,0.6,19.2,1.5c1.2,0.2,0.2-1.4-0.1-1.6c-5.6-3.5-13-5-20.6-4.7c-1.2,0-2.5,0.1-3.8,0.3
		c-2.1,0.2-0.5-2,3.6-5.2c4.9-3.8,9.8-7.6,14.7-11.3c18.6-14,51.5-20.2,77.7-18.1c29.7,2.4,55.8,19.9,65.7,38.7
		c4,7.6,4.2,16,3.3,24.1c-0.3,2.8-0.8,5.6-1.3,8.3c-0.7,3.9-8.9,6.1-11.9,9.2c-1.2,1.2-0.2,2.8,1.2,3.7c13.1,8.2,28,14.4,44.1,19.4
		c1.2,0.4,0.7-1.4-0.1-1.7c-11.5-4-22-9-31.8-14.6c-4.5-2.6-6.1-5.9-3.7-7.4c1.5-0.9,2.8-1.9,3.5-3.1c2-3.3,2-6.7,2.4-10.2
		c0.9-8.2,1-16.2-1.7-24.1c-5-14.8-19.9-27-37.2-35.5c-20.7-10.2-43.9-11.6-68.8-7.6c-12.2,1.9-24,4.4-34.5,9.4
		c-11.5,5.5-20.8,14-30.3,21c-17.1,12.5-40.2,27.2-43.9,45c-1.7,8.1,2.3,16.3,2.6,24.3c0.3,9.1-1,17.8,2.8,26.6
		c7,16.3,26.9,27.3,46,36.6c9.2,4.5,17,7.8,28.4,8.9C1233.5,639.9,1246.1,640.3,1258.3,639z"/>
	<path class="st1" d="M1352,581.7c1.4-0.7,2-1.7,2.1-1.8c0.1-0.1,0.1-0.1,0.1-0.2c0,0,0,0,0-0.1c0,0,1.4-1.6,3.4-3.3
		c1.2-1,2.5-2,3.8-3c1.4-1,2.9-1.8,4.5-2.6c2.6-1.3,6-2.5,7.6-2.5c0.9,0,1.9,0,2.9,0.1c0.1,0,0-0.1,0-0.1c-1.8-0.8-3.7-1.3-5.5-1.5
		c-3.3-0.3-9.9-1.5-14.9-3.7c-3.7-1.6-7.4-3.2-11.3-4.4c-0.6-0.2-0.3,0.7-0.1,0.8c2.9,1.6,6,3,9.1,4.4c5,2.2,7.4,4.4,5.6,5.3
		c-1.8,1-4.3,1.5-6.2,1c-1.1-0.3-2.2-0.5-3.3-0.7c-2.1-0.5-4.1-1.3-6.4-1.4c-0.9,0-0.4,1-0.1,1.2c1.9,1.3,4.2,2,6.6,2.7
		c0.7,0.2,1.4,0.4,2.2,0.6c1.2,0.3,1.7,0.9,1.2,1.6c-0.5,0.7-1.2,1.5-1.5,1.8c-0.3,0.3-1.7,0-3-0.6c-0.8-0.4-1.6-0.7-2.4-1.1
		c-3.4-1.6-6.8-3.4-10.9-4.1c-1-0.2-0.6,0.9-0.3,1.1c2.7,2.1,5.8,3.6,9.2,5.1c0.1,0,0.1,0,0.2,0.1c0.1,0-0.1,0-0.4-0.1
		c-0.2,0-0.4-0.1-0.6-0.1c-0.2,0-0.4,0-0.5,0c-0.3,0.1-2.6-0.9-5.8-2.1c-1.9-0.8-3.8-1.5-5.8-2.1c-0.7-0.2-0.3,0.7-0.1,0.9
		c2.1,1.2,4.4,2.4,6.7,3.4c3.8,1.8,7.8,3.6,8.9,4.3c0.7,0.4,1.4,0.8,2.1,1C1350.4,582.1,1351.3,582.1,1352,581.7z"/>
	<path class="st1" d="M1306.4,547.2c1.5-0.1,2.6-0.4,3.6-0.8c1.9-0.7,6.1,0.5,10.1,2.4c2.5,1.2,5.2,2.2,7.8,2.8
		c0.9,0.2,0.6-0.8,0.2-1.1c-1.9-1.2-4.1-2.4-6.5-3.5c-3.8-1.7-7.2-2.7-7-2.7c0.1,0,0.2-0.1,0.3-0.1c0.4-0.2,0.9-0.3,1.5-0.4
		c0.8-0.2,2.3,0.2,3.2,0.8c0.6,0.3,1.1,0.6,1.7,1c1.8,0.9,3.5,2,5.7,2.5c0.8,0.2,0.5-0.8,0.2-1c-0.9-0.7-1.9-1.4-3.1-2
		c-1.8-1-2.5-1.6-1.2-1.6c0.8,0,1.6,0,2.3,0.1c6.1,0.1,9.4,2,13,5.4c0.9,0.9,2,0.2,1.4-0.7c-2.3-3.5-4.7-6.7-9-9.1
		c-2.2-1.3-10.6-1.6-13.4-0.9c-0.4,0.1-0.8,0.2-1.2,0.3c-0.7,0.2-1.3-0.2-1.4-0.7c-0.1-0.4-0.2-0.7-0.3-1c-0.6-1.3-1.6-2.5-3-3.4
		c-0.9-0.6-3.2-1.6-4.2-0.6c-0.4,0.4-0.2,0.8,0.1,1.2c1,1.3,2.9,2.1,3.7,3.5c0.3,0.5,0.3,1.1,0.3,1.6c-0.1,0.9-1.4,2.6-2.9,3.7
		c-1.5,1.1-3.3,0.7-4-0.4c-0.4-0.7-1-1.4-1.4-1.8c-1.8-1.7-5.3-3.6-8.5-2.5c-0.7,0.2-0.1,1.1,0.4,1.2c1.7,0.6,3.4,1,4.9,1.8
		c0.6,0.3,1.5,0.9,2.2,1.7c1,1.1-2.2,2.5-4.5,4.3c-1.3,1-2.2,2.3-2.6,3.8c-0.1,0.2,0.4,1,0.8,0.7
		C1299,549,1301.7,547.7,1306.4,547.2z"/>
	<path class="st1" d="M1275.4,599.1c0.3,0.3,0.7,0.7,1,1c0.3,0.3,0.7,0.6,1.1,0.9c0.6,0.5,0.9,1.1,0.5,1.4c-0.3,0.2-0.6,0.4-0.9,0.6
		c-1.2,0.7-2.6,1.1-3.3,2.1c-0.3,0.4,0.2,1.1,0.7,1.3c1.7,0.6,3.2,0.1,4.4-0.7c1.9-1.3,6.4-2.1,11.2-1.3c3,0.5,5.8,1.2,8.1,2.7
		c0.4,0.2,0.5-0.1,0.3-0.3c-5-4.9-15.9-3.8-19.9-9.7c-1.2-1.7-1.6-3.7-3-5.3c-0.9-1.1-6.3-4.9-5.7-6.1c2.1-4.2,4.1-6.1,2.9-10.7
		c-2-7.7,8.2-11.6,7.4-18.5c-0.1-0.5-1.3-1.7-1.6-0.6c-0.1,0.4-0.3,0.8-0.5,1.2c-0.3,0.6-2.4-0.9-5.8-2.4c-2.5-1.1-5.2-1.8-6.8-1.3
		c-0.9,0.2-0.1,1.3,0.3,1.5c1.6,1,3.6,1.5,5.4,2.3c0.6,0.3,1.7,0.7,2.6,1.3c1.3,0.8,0.6,2.8-0.7,4c-0.8,0.7-1.5,1.5-2.1,2.3
		c-1.6,2.4-2.4,4.6-3,7.3c-0.7,3,0.7,5.7-1.8,8.7c-0.4,0.4-0.8,0.9-1.1,1.4c-0.6,0.8-1.3,1.7-1.9,2c-0.4,0.2-0.7,0.4-1.1,0.5
		c-2.1,0.7-3.8-0.2-5.8-0.1c-1.4,0.1-0.9,1.5-0.5,2c1.7,2,4.7,2.4,7.8,1.7c0.1,0,0.3-0.1,0.4-0.1c0.2-0.1,0.9,0.7,1.7,1.6
		c0.5,0.5,1,1,1.7,1.5c0.9,0.7,1.6,1.4,2.3,2.1c1.2,1.2,1.5,2.8,0.5,3.4c-0.5,0.3-1.1,0.6-1.9,0.9c-2,0.8-4.3,0.8-6.5,1.3
		c-0.7,0.2-0.2,1,0.1,1.2c1.9,1.4,4.4,1.7,6.7,1.2C1272.8,600.5,1274.8,598.5,1275.4,599.1z"/>
	<path class="st1" d="M1261,618.6c1.3,0.5,0.4,3.5-3.4,5.9c-2.3,1.4-4.8,2.6-7.5,3.9c-0.5,0.2-0.1,1.1,0.4,1
		c3.6-0.3,6.7-1.5,9.2-3.2c4.2-2.8,8.8-5.2,12.7-4.9c2.3,0.2,4.6,0.2,7.1,0.1c0.4,0,0.2-0.6-0.2-0.6c-14.1,0.3-24.3-8.5-32.4-15.4
		c-5.3-4.5-1.7-9-1.7-14.1c0-5.1-2.9-10.9,0.6-15.6c2.3-3.1,2.9-6.3,3.5-9.7c1.2-6.8,8.1-7.9,12.2-13c1.3-1.6,2.1-3.3,2.3-4.9
		c0.3-2.8,0.9-7.1,5.2-8.5c2.8-0.9,5.7-1.7,7.8-2.7c4.9-2.3,9.6-4.6,14.6-6.7c10.5-4.3,20-7,32.1-7.4c4.9-0.2,9.6-0.8,14.6-0.7
		c3.9,0.1,1.7,4.6,2.3,6.1c0.7,1.8,1.3,2.6,2.9,4.1c4.9,4.6,0.8,8.7,0,13.4c0,0.1,0.4,0.8,0.7,0.5c4.7-4.7,8.7-10.9,2.8-15.4
		c-1.6-1.2-1.9-3-2.1-4.8c-0.2-2.9,3.4-7.6,3.9-11.7c0.5-5.4-3.6-11.7-9.7-13.4c-1-0.3-0.8,0.9-0.5,1.2c2.8,2.8,5.9,5.2,6.5,8.7
		c0.2,1.4-0.1,2.8-0.7,4.1c-1.1,2.2-4.2,3-6.3,2.7c-1.3-0.2-2.6-0.3-3.9-0.3c-0.8,0-1.5,0-2.3,0c-1.3,0.1-0.2-3.2-1-7.2
		c-0.5-2.5-1.7-5-3.2-7.1c-0.3-0.5-1.2-0.5-1,0.1c0.7,2.4,1.5,4.9,1.7,7.3c0.3,4.1-3.5,7.5-5.3,7.8s-2.3-2.2-2.6-5.7
		c-0.2-2.2-0.7-4.4-1.3-6.2c-1.8-5.5-6.4-10.6-13.1-13.6c-0.9-0.4-0.8,0.7-0.4,1c5,4.1,8.5,8.6,10.2,13.9c0.7,2,0.7,4,0.5,6.1
		c-0.3,3.4-2.5,6.4-4.3,6.9c-1.9,0.5-3.5-0.7-4.5-2.4c-0.6-1.1-1.4-2.1-2.1-3.1c-2.5-3.3-5.9-6.7-10.4-8.8c-1.2-0.5-0.9,0.9-0.5,1.2
		c2.4,2.2,5.9,4.9,8.6,7.7c3.2,3.4,0.4,7.8-3.4,8.9c-2.4,0.7-4.7,1.4-7,2c-1.9,0.5-3.7,1.2-5.6,1.9c-3,1.2-5.2,1.5-5.5,0.5
		c-0.2-0.6-0.4-1.2-0.7-1.7c-1.7-3.3-4.3-6.9-8.3-9.2c-1-0.6-0.9,0.7-0.6,1c1.3,1.7,3.4,3.8,5,6c2.5,3.4,1.8,6.8,1.4,6.9
		c-0.4,0.1-1.4-0.9-2.6-2.2c-0.8-0.8-1.7-1.6-2.4-2.2c-3.5-3-8.1-6.3-13.8-7c-1.1-0.1-0.2,1.3,0.1,1.5c2.9,1.8,6.1,3.3,9,5.2
		c1.2,0.8,2.2,1.8,3.2,2.8c1.5,1.7,2.6,3,2.3,3.1c-0.3,0.1-1.8-1.7-4.2-3.5c-1.5-1.1-3.3-2-5.3-2.4c-1-0.2-0.4,0.9-0.1,1.1
		c1.3,0.8,2.7,1.6,3.9,2.5c2.1,1.4,2.6,3,1.6,3.2c-0.6,0.2-1.3,0.3-1.9,0.5c-5.8,1.6-10.1,3.5-11.5,7.8c-0.5,1.4,0.9,3.1,2.6,3.7
		c2.3,0.8,2.1,2.3,0.8,3.9c-1.8,2.3-5.6,3.8-7.5,3.6c-1.1-0.1-2.1-0.2-3.3-0.5c-3-0.7-5.4-2.2-8.2-3.1c-0.8-0.3-0.4,0.8-0.2,0.9
		c1.1,1,2.8,2,4.7,2.8c2.9,1.3,0.8,2.5-4.9,1.3c-6.6-1.3-12.3-4.5-18.1-7.5c-0.7-0.3-0.6,0.5-0.3,0.8c3.7,2.9,10.2,7.4,17.1,9.4
		c5.4,1.5,10.3,0.7,10.1,0.9c-0.1,0.1-0.3,0.3-0.3,0.4c-1.1,1.7-1.7,3.4-2.2,5.1c-0.8,2.9-3.1,5.5-5.4,5.7c-1.3,0.1-2.7,0.2-4.1,0.2
		c-3,0-5.9-0.6-8.8-1c-0.9-0.1-0.2,1.1,0.1,1.2c2.1,1.1,4.8,1.8,7.6,2.1c4.5,0.5,8.2-0.3,8.2-0.1c0,0.1-0.1,0.2-0.1,0.2
		c-0.5,1.1-1.1,2-1.6,2.8c-0.9,1.6-4.3,4-8.1,4.3c-2.3,0.2-4.6,0.2-6.9,0.2c-0.7,0-0.1,0.8,0.2,0.9c2,0.7,4.2,1,6.4,0.9
		c3.7-0.2,6.4-1,6.4-0.6c0,0.2,0,0.4,0,0.6c0.5,5.5,1.2,9.3-0.6,14.8c-0.2,0.7-0.4,1.4-0.5,2.1c-0.1,1.1-3.1,4.1-7.7,5.6
		c-2.7,0.9-5.5,1.5-8.7,1.8c-5.5,0.6-11.1,0.4-16.5,1.2c-0.9,0.1-0.1,1.4,0.5,1.5c7.3,1.5,16.9,1.8,24.8-0.2c5.7-1.5,9.4-3.6,10-2.9
		c0.5,0.7-1.5,3.6-6,5.2c-2.6,0.9-5.4,1.6-8.5,2.2c-0.6,0.1,0,0.9,0.3,1c3.3,0.8,6.7,0.4,9.7-0.7c5-1.8,8.2-3.8,9.9-2.5
		c1,0.8,2.1,1.6,3.1,2.4c1,0.8,2,1.5,3,2.2c1.8,1.2,1.2,4-2.3,5.8c-2,1.1-4.3,1.9-6.9,2.5c-6.4,1.5-12.5-0.4-18.6-1.4
		c-0.8-0.1-0.4,0.8-0.1,1c7.4,3.6,18.4,4.3,26,0.8C1256.9,621.1,1259.7,618.1,1261,618.6z"/>
	<path class="st1" d="M1325,604.2c0.4,0.1,0.3-0.5,0-0.6c-9-2.4-18.5-5.2-28.1-6.1c-0.4,0-0.1,0.5,0.1,0.5
		C1306.1,600.4,1315.8,601.9,1325,604.2z"/>
	<path class="st1" d="M1321.3,607.5c0.9,0.2,0.5-1-0.1-1.1c-7.9-1.9-16-4.5-24.4-5.1c-0.5,0-0.1,0.6,0.1,0.7
		C1304.5,604.6,1313.2,605.9,1321.3,607.5z"/>
	<path class="st1" d="M1316.2,562.4c0.3,0.1,0.2-0.2,0.1-0.3c-2.9-1.6-6-3.1-9.1-4.6c-0.6-0.3-0.5,0.5-0.1,0.7
		C1310.1,559.6,1313.1,561.1,1316.2,562.4z"/>
	<path class="st1" d="M1322.5,559.8c0.9,0.2,0.4-0.9,0.1-1.1c-4.8-2.9-11.4-5.2-17.3-6.9c-0.5-0.2-0.3,0.6-0.1,0.7
		C1310.3,555.2,1316.3,558.4,1322.5,559.8z"/>
	<path class="st1" d="M1339.2,562.1c-4.2-2.9-8.7-5.4-14.1-7.3c-0.5-0.2-0.3,0.5,0,0.6c4.6,2.4,9.4,4.7,13.9,7.3
		C1339.5,563.1,1339.5,562.3,1339.2,562.1z"/>
	<path class="st1" d="M1365.8,580.3c0-0.6-0.1-1.3-0.2-1.9c-0.1-0.5-0.9-0.6-0.8,0c0.1,0.6,0.3,1.3,0.6,1.9
		C1365.4,580.5,1365.8,580.6,1365.8,580.3z"/>
	<path class="st1" d="M1361.3,585.6c0.7-1.3,0.4-2.8-0.3-3.9c-0.5-0.8-1.9-0.8-1.6,0.2c0.3,0.8,0,1.5-0.5,2.2
		c-0.5,0.8-1.7,1.4-1.8,2.4c0,0.4,0.2,0.8,0.7,1C1359.5,588.1,1360.8,586.5,1361.3,585.6z"/>
	<path class="st1" d="M1349,594c3.4,0.7,4.7-3,4.5-4.7c-0.1-0.4-0.2-0.7-0.7-0.9c-0.4-0.2-0.9-0.1-1,0.3c-0.1,0.8-0.6,1.5-1.2,2.2
		c-0.7,0.8-1.8,1.2-2.2,2.1C1348.2,593.4,1348.4,593.9,1349,594z"/>
	<path class="st1" d="M1351.4,604.8c1.6-0.1,2.4-1.2,2.9-2.2c0.7-1.2,0.6-2.5,0.2-3.6c-0.3-0.8-1.7-1.1-1.4,0c0.2,0.9,0,1.8-0.5,2.7
		c-0.5,0.8-1.3,1.5-1.8,2.3C1350.7,604.2,1350.9,604.9,1351.4,604.8z"/>
	<path class="st1" d="M1362.2,606.8c1.1-1.3,1.3-2.7,0.8-4.1c-0.2-0.5-1.4-1.1-1.3-0.2c0.1,1.1-0.5,2.1-1.4,3
		c-0.9,0.8-2.5,1.2-3.3,2.1c-0.3,0.4,0.2,0.9,0.6,1.1C1359.4,609.2,1361.3,607.8,1362.2,606.8z"/>
	<path class="st1" d="M1369.9,592.1c0.5-1.2,0.2-2.5-0.7-3.5c-0.7-0.8-1.6-0.1-1.1,0.6c0.5,0.7,0.2,1.3-0.2,2
		c-0.4,0.7-1.5,1.1-1.8,1.8c-0.2,0.4,0.1,0.9,0.6,1C1368.2,594.4,1369.5,593,1369.9,592.1z"/>
	<path class="st1" d="M1372.7,585.7c2.3,0.2,2.6-2.4,2.3-3.4c-0.2-0.8-1.6-1-1.4,0c0.2,1-1,1.7-1.4,2.7
		C1372,585.2,1372.2,585.6,1372.7,585.7z"/>
	<path class="st1" d="M1374.7,579.2c1.3,0.3,1.9-0.7,2.1-1.4c0.3-0.9-0.2-1.8-1-2.5c-0.2-0.2-0.6-0.3-0.9-0.1
		c-0.3,0.3-0.2,0.7,0.1,1c0.7,0.7-0.6,1.5-0.9,2.2C1374.1,578.6,1374.3,579.1,1374.7,579.2z"/>
	<path class="st1" d="M1381.1,580.4c2.4-0.8,2.9-3.1,2.5-4.7c-0.1-0.4-1-0.7-0.9-0.1c0.2,1.6-0.9,2.8-2.1,4.1
		C1380.5,580,1380.7,580.6,1381.1,580.4z"/>
	<path class="st1" d="M1380,590.2c2.5-0.7,3.1-2.9,2.4-4.5c-0.2-0.4-0.9-0.6-0.8,0c0.5,1.5-0.7,2.9-1.9,4.1
		C1379.6,589.8,1379.7,590.2,1380,590.2z"/>
	<path class="st1" d="M1378.7,595.5c0.5-0.3,0.8-0.7,1-1.1l1.2-1.6c0.3-0.3-0.5-1.1-0.8-0.7c-0.7,0.9-1.7,2-2,3
		C1378.1,595.3,1378.4,595.7,1378.7,595.5z"/>
	<path class="st1" d="M1374.6,602.6c2.4,0.1,3.7-2.1,4.1-3.4c0.2-0.6-1.3-1.8-1.6-0.8c-0.2,0.7-0.6,1.3-1.2,1.8
		c-0.6,0.5-1.4,0.9-1.9,1.5C1373.7,602,1374.1,602.5,1374.6,602.6z"/>
	<path class="st1" d="M1171,584.5c0.5-0.1,0.1-0.9-0.4-0.9c-7.5,0-14.8-0.3-21-3.5c-0.3-0.1-0.3,0.2-0.1,0.3
		C1155,584.1,1163.2,586.7,1171,584.5z"/>
	<g>
		<path class="st1" d="M1165.4,601.7c-1.1-0.6-2.2-1.3-3.2-2c-0.2-0.1-0.2,0.1-0.1,0.2c1,0.8,2,1.4,3.2,2
			C1167.2,602.8,1167.3,602.7,1165.4,601.7z"/>
		<path class="st1" d="M1171.3,603.9C1172.6,604.1,1172.6,604,1171.3,603.9C1170.1,603.5,1170,603.6,1171.3,603.9z"/>
		<path class="st1" d="M1174.4,604.3C1174,604.2,1174,604.3,1174.4,604.3c0.3,0.1,0.5,0.1,0.7,0.2c0.1,0,0-0.1,0-0.1
			C1174.8,604.3,1174.6,604.3,1174.4,604.3z"/>
	</g>
	<path class="st1" d="M1181.7,611.5c1.2-0.1,0.4-1.7-0.5-1.7c-6,0-10.3-1.7-14.7-4.3c-0.8-0.5-0.8,0.6-0.5,0.9
		C1169.1,610.2,1175.6,611.9,1181.7,611.5z"/>
	<path class="st1" d="M1256.2,476.9c12.5,1.6,21.7,5.7,32,10.3c0.7,0.3,0.6-0.5,0.3-0.8c-8-6.5-20.6-9.6-32.7-10.6
		C1255.1,475.8,1255.6,476.9,1256.2,476.9z"/>
	<path class="st1" d="M1267.6,472.5c8.4-0.2,14.5,3.5,21.3,6.1c0.6,0.2,0.4-0.6,0.2-0.8c-5.6-4.2-13.1-7.8-21.8-6.2
		C1266.8,471.8,1267.2,472.5,1267.6,472.5z"/>
	<path class="st1" d="M1300.9,476.9c0.3,0.3,0.5-0.1,0.4-0.3c-1.3-2.1-3.8-3.5-6.9-4.3c-0.5-0.1-0.2,0.5,0,0.6
		C1297.2,473.9,1299.1,475.4,1300.9,476.9z"/>
	<path class="st1" d="M1308.9,540.7c0.3-2.2-1.6-5.8-5.5-5.6c-0.5,0-0.2,0.6,0,0.7c2.3,1.1,4.3,2.3,4.2,4.4
		C1307.7,540.7,1308.9,541.4,1308.9,540.7z"/>
	<path class="st1" d="M1322.8,531.4c0-0.6,0.1-1.4-0.5-1.9c-0.5-0.4-1.5-0.7-2.2-1c-1.2-0.5-0.9,1-0.3,1.3c0.2,0.1,0.4,0.2,0.6,0.3
		c0.3,0.2,0.5,0.7,0.5,1.2c0,0.3,0,0.6-0.1,0.8c0,0.8-0.1,1.6,0.4,2.3c0.1,0.2,0.5,0.6,0.9,0.3
		C1323.1,534,1322.8,532.3,1322.8,531.4z"/>
	<path class="st1" d="M1329,536.6c4.6-1.4,3.4-6.4,1-8.5c-0.7-0.6-1,0.3-0.7,0.7c2.2,2.3,0.7,4.7-1,7
		C1328.2,536.1,1328.5,536.7,1329,536.6z"/>
	<path class="st1" d="M1293.7,588.2c0.7,0.1,0.3-0.7,0.1-0.8c-4.3-2.4-9.5-3.9-14.4-5.6c-0.9-0.3-0.6,1-0.1,1.2
		C1283.8,584.9,1288.5,587.2,1293.7,588.2z"/>
	<path class="st1" d="M1296.2,582.7c0.5,0.1,0.3-0.5,0-0.6c-3.8-2-8-3.2-12.6-4.2c-0.6-0.1-0.3,0.6,0,0.8
		C1287.9,580,1291.9,581.6,1296.2,582.7z"/>
	<path class="st1" d="M1315.3,583.3c0.3,0.1,0.2-0.4,0-0.4c-4.4-1.1-8.9-2.3-13.3-3.3c-0.2,0-0.1,0.2,0,0.2
		C1306.4,581,1310.9,582.2,1315.3,583.3z"/>
	<path class="st1" d="M1309.5,575.2c0.8,0.2,0.4-0.8,0.1-0.9c-6.7-3.4-14.3-5.9-21.1-9.2c-0.9-0.4-0.7,0.8-0.2,1.1
		C1294.7,569.6,1301.6,573.5,1309.5,575.2z"/>
	<path class="st1" d="M1311.8,567.3c0.9,0.2,0.5-0.9,0.1-1.1c-5.7-3-12.5-4.9-18.9-7c-0.8-0.3-0.5,0.9-0.1,1.1
		C1298.6,563,1304.8,566.1,1311.8,567.3z"/>
	<path class="st1" d="M1291.4,590.4c0.5,0,0.1-0.6-0.1-0.6c-3-1.1-6.1-2-9-3.3c-0.9-0.4-0.8,0.8-0.2,1.1
		C1284.9,588.9,1288,590.1,1291.4,590.4z"/>
	<path class="st1" d="M1284.2,617.2c2.7,0.3,5.2-1.5,6.7-2.9c1.6-1.5,2.1-3.4,2.2-5.1c0-0.5-1.3-1.4-1.4-0.5
		c-0.2,1.7-1.1,3.1-2.7,4.5c-1.5,1.3-3.8,1.8-5.4,3C1283.2,616.4,1283.7,617.1,1284.2,617.2z"/>
	<path class="st1" d="M1296.2,614.1c1.4,0.1,2.2-1.2,2.7-1.9c0.6-1,0.7-2.1,0.6-3.1c0-0.4-0.4-1-1-1.1c-0.6-0.2-0.9,0.3-0.9,0.6
		c0,0.9-0.2,1.7-0.8,2.5c-0.5,0.7-1.3,1.3-1.5,2.1C1295.4,613.6,1295.7,614.1,1296.2,614.1z"/>
	<path class="st1" d="M1270.8,628.5c1.7,0.1,3-1.2,3.9-2.1c1-1.1,1.5-2.2,1.7-3.5c0.1-0.6-1.3-1.8-1.6-0.8c-0.3,1.1-1,2.1-1.9,3
		c-0.9,0.9-2.2,1.4-2.8,2.4C1269.8,627.8,1270.2,628.5,1270.8,628.5z"/>
	<path class="st1" d="M1277.9,630c5.1-0.7,6.4-6,5.2-8.8c-0.2-0.6-1.7-1.3-1.6-0.2c0.2,1.5,0,2.9-0.9,4.3c-0.8,1.4-2.4,2.6-3.5,3.9
		C1276.9,629.5,1277.4,630.1,1277.9,630z"/>
	<path class="st1" d="M1219.9,630.2c0.9-0.1,0.3-1.4-0.4-1.3c-7.7,0.8-14.5-0.1-21.8-1.6c-0.4-0.1-0.2,0.4,0,0.5
		C1204.2,630.5,1212.2,631,1219.9,630.2z"/>
	<path class="st1" d="M1189.7,550.8c0.4,0.1,0.1-0.6-0.1-0.7c-7.5-2.4-15.1-4.6-22.4-7.2c-0.5-0.2-0.3,0.5,0,0.6
		C1174.1,547,1181.3,549.7,1189.7,550.8z"/>
	<path class="st1" d="M1185.3,562.6c0.7,0.1,0.2-1-0.4-1.1c-6-0.8-11.1-2.7-16.7-4c-0.6-0.1-0.3,0.6-0.1,0.7
		C1172.8,561,1179.1,562.2,1185.3,562.6z"/>
	<path class="st1" d="M1173.9,570.9c0.9,0.1,0.4-1.4-0.5-1.5c-2.8-0.2-5.7-0.8-8.1-1.7c-0.4-0.1-0.2,0.4,0,0.5
		C1167.9,569.7,1170.5,570.6,1173.9,570.9z"/>
	<path class="st1" d="M1236.2,505.5c0.2,0.1,0.2-0.1,0.1-0.2c-4.5-3.4-10.1-6.1-16.9-6.8c-0.3,0-0.1,0.4,0.1,0.4
		C1225.7,500.4,1231.4,502.2,1236.2,505.5z"/>
	<path class="st1" d="M1221.4,489.2c9,2.2,17.1,4.2,24.3,8.7c0.4,0.2,0.4-0.4,0.2-0.5c-6.4-4.6-15-8.8-24.7-9.1
		C1220.5,488.3,1221,489.1,1221.4,489.2z"/>
</g>
<path class="st1" d="M332.3,625.7c1.2-0.1,1.2-1.4-0.1-1.4c-17.9-0.7-35.8-1.7-53.8-2.7c-17.2-0.9-34.2-0.8-51,0.4
	c-3.2,0.2-6.7,0.1-7.9-0.3c-0.7-0.2-1.5-0.4-2.2-0.6c-2.5-0.8-4.9-1.6-7.4-2.4c-4.7-1.6-9.5-3.2-14.2-4.8
	c-9.6-3.3-19.2-6.6-28.9-9.9c-0.6-0.2-1.1,0.4-0.5,0.7c9.5,3.8,19.1,7.4,28.9,10.8c4.9,1.7,9.8,3.4,14.7,5c1.2,0.4,2.4,0.8,3.7,1.2
	c2,0.7,1.1,1.5-2,1.8c-7.6,0.9-15.2,2-22.8,3.3c-12.8,2.3-25.6,4.9-38.1,7.8c-3,0.7-7.2,0.5-9.4-0.1c-2.3-0.7-4.1-1.3-4.1-1.3
	c0,0,0,0,0,0c-1.7-2.6-2.7-5.2-3.1-8c-0.4-2.3-0.4-4.7-1.2-7c-0.5-1.5-1.1-3.1-2.1-4.6c-1.4-2.2-4.3-4.6-5.6-5.8
	c-0.8-0.7-1.5-1.5-2.4-2.2c-0.4-0.3-1-0.4-1.5-0.3c-4.2,0.6-7.2,2.5-8.8,4.9c-1.4,2.1-2.7,2.7-4.7,1.3c-1.2-0.9-2.4-1.6-3.8-2.4
	c-1.6-0.8-3.6-1.6-5.2-0.6c-0.7,0.4-1,1-1.1,1.6c-0.2,1-2.2,0.6-5.2-0.1c-2.8-0.7-5.9-0.9-9-0.5c-0.4,0.1-0.7,0.4-0.7,0.6
	c0.4,2.7,0.3,5.3,3.2,7.4c0.9,0.6,1.8,1.1,2.9,1.6c1.7,0.7,2.9,1.1,2.4,1.1c-0.3,0-0.6,0-0.9,0c-0.9,0-1.1,0.7-0.6,1.2
	c1.7,1.6,3.9,2.5,6.3,3.4c3,1,3.1,1.6,0.5,2c-1.5,0.2-3,0.6-4.5,1.2c-0.5,0.2-0.5,0.7-0.1,1c4.6,4.3,9.9,7.2,17.5,7.4
	c4,0.1,7.9-0.6,11.7-1.2c2.1-0.3,4.3-0.6,6.4-0.8c3.1-0.3,6-0.4,6.4-0.3c0.4,0.1,0.9,0.5,1.3,0.7c0.4,0.2,1,0.2,1.3,0.3
	c0.2,0.1,0.3,0.1,0.5,0.2c0.8,0.3,1.6,0.6,2.5,0.9c1.4,0.5,0.1,1.4-2.9,2.1c-4.9,1.2-9.9,2.5-14.7,3.9c-2.9,0.8-7.9,1.1-11.1,0.7
	c-19.4-2.1-42.6-1.3-52.1,12.2c-0.3,0.5,0,1.1,0.8,1.3c3,0.7,6,0.8,8.9,0.4c3.1-0.4,4-0.2,1.7,0.7c-1.5,0.6-3,1-4.1,1.6
	c-2.2,1.1-4,2.6-5.4,4.2c-3.2,3.6-4.3,8-2.9,12.3c0.2,0.5,1,0.8,1.6,0.7c1.1-0.2,2.2-0.4,3.4-0.5c1.9-0.3,2.9,0.2,3,1.1
	c0,0.5,0.3,1.1,0.8,1.6c1.1,1.1,3,1.4,4.6,0.9c2.7-0.8,5.1-2.9,7-4.5c0.9-0.8,1.8-1.6,2.6-2.4c1.4-1.4,3.1-1.3,3.4,0.3
	c0.2,1,0.6,2,1.9,2.5c2.6,0.9,5.2-1.7,6.6-2.9c1.6-1.3,3-2.8,4.3-4.3c1.5-2,1.7-2,1.8,0.2c0,1.3,0.4,2.6,1.6,3.9
	c0.9,1,3.1,2.7,5,2.5c1.8-0.2,3.6-2.5,4.5-3.5c3.2-3.6,4.4-7.9,4-12.3c-0.3-2.7-1-5.9-0.3-8.7c0.5-2.3,2.3-3.8,2.4-3.8
	c0.1,0,0.1,0,0.2-0.1c0.2-0.1,0.3-0.1,0.4-0.2c0.2-0.2,0.5-0.6,0.9-0.8c0.4-0.2,1-0.4,1.1-0.6c0.1-0.2,2.5-0.9,5.5-1.6
	c5-1.2,10.1-2.4,15.1-3.5c3-0.7,4.1,0.1,2.1,1.5c-1.2,0.8-2.4,1.6-3.9,2.3c-2.8,1.4-5.7,2.6-8.3,4.1c-3.1,1.9-5.6,4.3-6.5,7
	c-0.7,2.3-0.1,4.5,0,4.8c0.1,0.2,0.3,0.3,0.6,0.4c1.6,0.3,3.3,0,4.8-0.6c2.3-1,3.6-1.7,4.8-1.3c0.7,0.2,1.5,0.3,2.4,0.1
	c1.8-0.4,2.3-1.4,2.3-2.6c0.1-1.9,0.7-3.1,1.7-3.3c0.6-0.1,1.1-0.3,1.6-0.7c2.7-2.3-2.6-5.9,0.3-8c0.1,0,0-0.1-0.1-0.1
	c-0.1,0-0.3,0-0.4,0.1c-0.2,0,1.5-0.8,3.3-2.3c1.1-0.9,2.1-1.9,2.7-3c0,0,0-0.1,0.1-0.1c0-0.1,1.1-0.4,2.5-0.7
	c0.8-0.2,1.6-0.4,2.5-0.6c7.8-1.8,15.8-3.4,23.8-4.9c3.1-0.6,5.5-1,5.4-1c0,0-0.1,0-0.1,0c-3.4,1.2-6.6,2.5-9.7,4
	c-3,1.5-5.9,3.1-8.6,4.8c-2.5,1.6-5.3,3.4-6.9,5.6c-0.2,0.3,0.3,0.7,0.7,0.5c2.8-1.5,5-3.5,7.6-5.1c2.8-1.7,5.6-3.4,8.7-4.8
	c3-1.4,6.1-2.7,9.3-3.8c1.4-0.5,3-0.8,4.6-1.2c2.5-0.7,6.8-2.1,9.9-2.5c14.2-2.1,28.5-3.7,43-4.4c15.4-0.8,31-0.2,46.5,0.8
	C301,625.2,316.8,626.8,332.3,625.7z M139.3,648.8c0,0.4-0.4,0.8-0.9,0.9c-0.5,0.1-1.4-0.3-2.1-0.1c-0.4,0.1-0.7,0.3-0.7,0.7
	c0,1,0.3,2.1,0.5,3.1c0,0.2,0.1,0.6,0.2,1c0.1,0.6-1.1,1.1-2.3,1.3c-1.2,0.2-2.3,0-2.5-0.4c-0.2-0.4-0.4-0.8-0.5-0.9
	c0-0.1-0.1-0.1-0.1-0.2c-0.1-0.3-0.7-0.4-1-0.1c-0.8,0.9-1.3,2-2.4,2.7c-0.5,0.3-1,0.6-1.6,0.8c-1,0.3-2.5-1.5-1.5-3.7
	c1.6-3.5,6.3-6.1,10.4-8.1c0.3-0.1,0.5-0.3,0.8-0.4c0.4-0.2,0.4,0-0.1,0.5c-0.3,0.3-0.6,0.6-0.9,0.9c-0.1,0.1-0.2,0.2-0.2,0.2
	c-0.1,0.1-1.7,0.9-3,2.2c-0.7,0.7-1.2,1.6-1.3,2.6c0,0.2,0.3,0.3,0.5,0.2c0.5-0.3,1-0.7,1.4-1.1c0.7-0.7,1.8-1.7,2.5-2.3
	c0.5-0.3,0.9-0.7,1.3-1c0.4-0.3,0.8-0.6,1.2-0.9c0.7-0.5,1.2-0.7,1.3-0.3c0,0.2,0.1,0.4,0.2,0.6c0.1,0.2,0.2,0.5,0.3,0.7
	C139.1,647.8,139.2,648.4,139.3,648.8z M83.1,644.6c7.4-1.2,15.1-1,22.8-0.7c3.2,0.2,3.9,0.6,1.6,1.2c-1.4,0.4-2.8,0.8-4.1,1.1
	c-3.7,1-7.1,2.4-10.5,4c-6.6,3.1-12.3,6.9-16.6,11.7c-0.3,0.3,0.4,0.7,0.7,0.4c4.8-4.4,10.5-8.4,17.2-11.2c0.1,0,0.2-0.1,0.3-0.1
	c0.2-0.1,0,0.3-0.4,0.9c-0.2,0.4-0.4,0.7-0.6,1c-2.1,3.6-4.2,7.1-6,10.8c-0.1,0.2,0.4,0.4,0.5,0.2c2.1-2.8,3.9-5.6,5.8-8.5
	c0.8-1.2,1.5-2.5,2.5-3.7c0.4-0.5,1-0.9,1.6-1.3c1-0.6,2.9-1.5,4.4-1.9c0.9-0.2,1.8-0.5,2.7-0.7c1.1-0.3,2.2-0.4,3.4-0.6
	c1.9-0.3,2.3,1.2,2.1,3.5c-0.5,4.3,1.1,9.4,0.2,13c-0.5,2.1-1.6,4-3.1,5.8c-0.7,0.8-1.5,1.9-2.5,2.5c-0.9,0.6-1.4,0.4-2.3-0.3
	c-0.5-0.4-0.9-0.9-1.3-1.3c-1.7-2.5-0.5-5.3,0-7.7c0.4-1.9,0.2-3.7-0.4-5.6c-0.2-0.7-1.8-0.7-2,0c-1.2,4.9-3.3,9.2-7.6,13
	c-0.9,0.8-2,2-3.3,2.6c-0.7,0.3-1.9,0.6-2.6-0.2c-0.3-0.3-0.2-1.5-0.4-1.9c-0.3-1.2-1-2.1-2.7-2.5c-0.4-0.1-0.8,0.1-1,0.3
	c-1.7,2-3.8,3.9-6,5.6c-1.1,0.8-2.3,1.6-3.5,2.3c-0.6,0.4-1,0.6-1.4,0.7c-0.9,0.2-2.6-0.2-3-0.7c-0.4-0.5,0.2-1.2,0.4-1.5
	c0.1-0.2,0.2-0.3,0.2-0.5c0.4-0.6-0.3-1.2-1.2-1.1c-1.2,0.1-2.5,0.3-3.7,0.4c-2,0.2-4.1-1.5-3.6-3.8c0.6-3,2.4-5.9,5.3-8.1
	c3.6-2.7,11.7-3.7,11.2-8.4c-0.1-0.7-1.2-1-1.9-0.6c-2.2,1.3-4.8,2.1-7.5,2.3c-3.2,0.3-4.4-1.8-2.2-3.5
	C69.7,648,76.2,645.7,83.1,644.6z M130.8,621.9c0.1,1.8,0.2,3.7,0.5,5.6c0.4,2.3,0.5,3.8-0.6,3.4c-1.1-0.4-2.9-2-4-3.7
	c-0.7-1-1.3-2.1-1.8-3c-1.5-2.5-2-5.2-2.9-7.8c-0.2-0.5-1.1-0.4-1.1,0.1c0.1,2.8,1.5,5.3,2.9,7.9c0.6,1.2,1.3,2.4,2.2,3.5
	c0.3,0.3,0.6,0.7,0.9,1c0.5,0.5,0.6,0.8,0.1,0.6c-0.3-0.1-0.6-0.2-0.9-0.3c-7.5-2.9-14.9-5.5-22.6-7.9c-0.1,0-0.1,0.1-0.1,0.1
	c4.7,2.2,9.5,4.3,14.3,6.3c2.9,1.2,2.6,2.1-0.5,2.5c-2.7,0.3-5.4,0.8-7.7,1.4c-0.4,0.1-0.2,0.5,0.2,0.5c3.3-0.4,6.7-0.7,10.1-0.9
	c1.1-0.1,2.1-0.1,3.2-0.1c1.8,0,4.1,0.3,5.2,0.7c1.1,0.4-0.6,0.8-3.8,1.2c-3.6,0.5-7.3,1.4-10.7,1.7c-5.4,0.6-11.8-0.2-16.4-2.8
	c-2.6-1.5-1.5-4.1,1.7-4.1c2.3,0,4.6,0.4,6.8,1.3c1,0.4,2.1-0.5,1.2-1.2c-2.7-2-6.4-3-9.8-4.2c-3-1.1-4.1-2.4-3-2.6
	c0.6-0.1,1.3-0.3,1.9-0.5c0.9-0.3,0.5-1.3-0.3-1.5c-2.7-0.6-5.5-1-7.8-2.3c-1.4-0.8-2.3-1.7-2.8-2.8c-0.9-1.8,1.8-3.5,5-2.9
	c2.8,0.6,5.4,1.6,7.6,3.2c0.6,0.5,1.8,0.4,2.2-0.2c0.3-0.5,0.5-0.8,0.6-1.4c0.1-0.6-0.5-1.5-0.2-2.1c0.7-1.6,4.2,1.1,5.2,1.9
	c3,2.2,5.3,4.8,7.4,7.5c1,1.3,3.3,0.2,2.5-1c-2.1-3.5-1.2-6.8,1.6-9.1c2-1.7,5-2.2,5.7-1.8c0.6,0.4,1.1,0.8,1.1,0.9
	c0,0.1,0.1,0.1,0.2,0.2C129.5,612.7,130.4,616.9,130.8,621.9z"/>
</svg>
